<svg width="35" height="30" viewBox="0 0 35 30" fill="none" xmlns="http://www.w3.org/2000/svg">
<path d="M17.4994 0C14.9877 0 12.7739 1.68423 12.077 4.05523C9.36024 4.60574 7.26942 5.49964 5.8236 6.27907H29.1753C27.7295 5.49964 25.6386 4.60574 22.9219 4.05523C22.225 1.68423 20.0112 0 17.4994 0ZM17.4994 1.39535C19.1475 1.39535 20.6042 2.36555 21.3039 3.7936C20.1314 3.63281 18.8687 3.53198 17.4994 3.53198C16.122 3.53198 14.8511 3.63009 13.6731 3.7936C14.37 2.36283 15.8486 1.39535 17.4994 1.39535ZM4.20561 7.67442C1.63922 7.67442 0.707229 9.3423 0.707229 10.4651C0.707229 11.0565 1.23472 11.2664 1.51623 11.3808C2.03005 11.5907 2.80625 11.9177 2.80625 13.9535V15.4578L0.969607 14.6948C0.61157 14.5449 0.198871 14.7329 0.0512831 15.0872C-0.096305 15.4442 0.0868133 15.8557 0.44485 16.0029L2.80625 16.984V22.3256C2.80625 25.8003 6.55061 30 11.2024 30H23.7965C28.4483 30 32.1926 25.8003 32.1926 22.3256V16.9622L34.554 16.0029C34.9121 15.8557 35.0979 15.4442 34.9476 15.0872C34.7973 14.7302 34.3846 14.5476 34.0293 14.6948L32.1926 15.4578V13.9535C32.1926 11.9177 32.9688 11.5907 33.4826 11.3808C33.7642 11.2664 34.2916 11.0565 34.2916 10.4651C34.2916 9.3423 33.3597 7.67442 30.7933 7.67442H4.20561Z" fill="#FAC02C"/>
</svg>
