<svg width="28" height="39" viewBox="0 0 28 39" fill="none" xmlns="http://www.w3.org/2000/svg">
<path fill-rule="evenodd" clip-rule="evenodd" d="M27.4891 16.0002C27.5 15.7998 27.5 15.5546 27.5 15.25C27.5 13.1789 21.4558 11.5 14 11.5C6.54416 11.5 0.5 13.1789 0.5 15.25C0.5 15.3421 0.50096 15.4257 0.502808 15.5019C0.501871 15.5012 0.500935 15.5006 0.5 15.5C0.499972 16 0.500038 18.5 1.25004 20.1247C1.94683 22.2733 3.37704 24.3409 5.34556 25.9391C5.24384 26.0766 5.1607 26.2314 5.10109 26.4012L1.62276 36.3083C1.30258 37.2202 1.7823 38.2191 2.69422 38.5392C3.60615 38.8594 4.60496 38.3797 4.92513 37.4678L6.19553 33.8494L6.66208 33.75L21.75 33.75L23.25 38L23.3177 38.0846C24.4456 39.4945 26.7151 38.5428 26.5 36.75L22.6212 25.8834C24.6184 24.2559 26.0653 22.1791 26.75 20.1247C27.4999 17.8751 27.5 16.5006 27.5 16.0003V16C27.4964 16 27.4928 16.0001 27.4891 16.0002ZM24.5089 17.4765C24.5448 17.4363 24.6753 17.3667 24.8499 17.2736C25.361 17.0011 26.25 16.5272 26.25 16C26.25 15.75 26.2005 15.5508 26 15.25C25.3657 14.6157 24.2618 14.2514 23.2748 13.9258C23.0948 13.8664 22.9187 13.8082 22.75 13.75C20.25 13 17.3089 12.75 14.25 12.75C12.0164 12.75 9.75 12.75 7.75 13.25C7.62257 13.2755 7.49773 13.3003 7.37532 13.3247C5.09643 13.7781 3.6608 14.0637 2 15.25C1.75 15.5 1.5 15.75 1.75 16.25C1.85094 16.4519 2.09044 16.6602 2.27228 16.806C3.00777 17.287 3.91702 17.7593 5.00003 18C6.75003 18.5 10.2599 19 13.5 19C16.8215 19 19.75 19 23 18C23.5798 17.8216 24.0783 17.6456 24.5089 17.4765ZM14 29C16.0399 29 17.9339 28.537 19.6138 27.763L20.6902 30.5927H7.33892L8.32566 27.7822C10.0184 28.5495 11.9322 29 14 29Z" fill="#FAC02C"/>
<line x1="14.5" y1="14" x2="14.5" y2="17.5" stroke="#FAC02C" stroke-width="2" stroke-linecap="round"/>
<line x1="11" y1="14.5" x2="11" y2="17" stroke="#FAC02C" stroke-width="2" stroke-linecap="round"/>
<line x1="18" y1="14.5" x2="18" y2="17" stroke="#FAC02C" stroke-width="2" stroke-linecap="round"/>
<line x1="7.5" y1="15" x2="7.5" y2="16.5" stroke="#FAC02C" stroke-width="2" stroke-linecap="round"/>
<line x1="21.5" y1="15" x2="21.5" y2="16.5" stroke="#FAC02C" stroke-width="2" stroke-linecap="round"/>
<path d="M10 1.75C9.66667 2 9 2.75 9 3.75C9 5 10.75 5.75 10.75 7C10.75 8 10.0833 8.91667 9.75 9.25" stroke="#FAC02C" stroke-width="2" stroke-linecap="round"/>
<path d="M14 1.5C13.6667 1.75 13 2.5 13 3.5C13 4.75 14.75 5.5 14.75 6.75C14.75 7.75 14.0833 8.66667 13.75 9" stroke="#FAC02C" stroke-width="2" stroke-linecap="round"/>
<path d="M18 1.75C17.6667 2 17 2.75 17 3.75C17 5 18.75 5.75 18.75 7C18.75 8 18.0833 8.91667 17.75 9.25" stroke="#FAC02C" stroke-width="2" stroke-linecap="round"/>
</svg>
