<svg width="49" height="13" viewBox="0 0 49 13" fill="none" xmlns="http://www.w3.org/2000/svg">
<path d="M47.8725 0.00413545C45.6754 -0.0391721 40.4716 0.213455 34.004 2.90935L32.2983 8.3661C33.8636 8.33722 35.3958 7.86084 36.5398 6.9189C37.8697 5.82178 40.4633 4.42511 45.283 3.9379C47.4017 3.72497 49 2.14064 49 0.274807V0.0654878C49 0.0654878 48.6035 0.0185713 47.8725 0.00413545ZM1.05902 0.989382C0.728618 0.989382 0.418868 1.12291 0.216499 1.35028C0.0182592 1.58125 -0.0478207 1.88079 0.0347792 2.15868L2.14521 8.91466C2.89687 11.3182 5.41203 13 8.26586 13H23.8194C26.6691 13 29.1843 11.3218 29.9359 8.91466L32.0464 2.15868C32.1331 1.88079 32.067 1.58125 31.8688 1.35028C31.6664 1.12291 31.3567 0.989382 31.0263 0.989382H1.05902Z" fill="#FAC02C"/>
</svg>
