<svg width="335" height="335" viewBox="0 0 335 335" fill="none" xmlns="http://www.w3.org/2000/svg">
<path d="M108.37 233.014C69.5859 224.861 54.1484 219.739 44.3286 204.998C34.9814 190.967 30.8686 168.44 40.4452 155.81C47.4739 146.54 56.1175 150.197 67.944 139.869C70.478 137.656 72.3382 135.714 73.8635 133.314C85.5553 114.912 56.0599 89.319 64.3924 72.3188C67.0369 66.9233 88.9486 63.2979 132.664 56.2676C142.196 54.7346 149.527 53.8358 158.866 56.0716C176.713 60.3439 180.625 79.0841 189.401 77.5358C197.481 76.1103 195.641 61.373 206.903 53.6121C221.935 43.2525 246.124 55.0998 247.837 55.9644C269.231 66.7665 276.884 88.8417 286.388 117.624C298.452 154.157 308.106 182.304 293.99 208.048C282.161 229.623 261.43 238.655 250.292 243.382C220.986 255.817 183.206 248.745 108.37 233.014Z" fill="#92CED7"/>
<path d="M252.907 96.815L218.855 88.775L204.305 109.998L207.11 121.085L193.172 118.876L180.587 121.566L178.283 127.856C171.348 114.35 164.936 100.742 159.618 88.775C159.618 93.465 139.668 104.161 114.471 107.535C105.656 126.295 30.8257 230.887 30.8257 230.887L288.799 230.352L252.907 96.815Z" fill="#92CED7"/>
<path opacity="0.4" d="M173.778 118.925L182.292 135.538L187.313 138.376L195.947 137.338H207.858L218.854 149.104L226.122 147.508C226.122 147.508 231.053 147.205 234.835 146.725V126.965L198.667 106.865L173.778 118.925Z" fill="white"/>
<path opacity="0.14" d="M173.778 118.925L180.587 115.626L199.569 165.522C199.569 165.522 176.645 128.291 173.778 118.925Z" fill="#686868"/>
<path d="M218.855 150.11C218.58 150.11 218.313 149.996 218.121 149.791L207.422 138.343H196.007L187.433 139.374C187.22 139.399 187.005 139.357 186.818 139.251L181.798 136.413C181.627 136.316 181.488 136.171 181.398 135.996L172.883 119.383C172.76 119.143 172.739 118.862 172.825 118.606C172.911 118.349 173.096 118.138 173.339 118.021L198.229 105.961C198.524 105.817 198.87 105.828 199.156 105.987L235.323 126.087C235.642 126.264 235.84 126.6 235.84 126.965V146.725C235.84 147.232 235.464 147.659 234.962 147.722C231.452 148.168 226.914 148.464 226.263 148.506L219.071 150.086C218.999 150.102 218.926 150.11 218.855 150.11ZM195.947 136.333H207.858C208.137 136.333 208.403 136.449 208.592 136.652L219.198 148L225.907 146.526C225.957 146.515 226.009 146.508 226.061 146.505C226.106 146.502 230.275 146.244 233.83 145.835V127.557L198.636 107.997L175.14 119.381L183.049 134.812L187.52 137.34L195.827 136.341C195.867 136.336 195.907 136.333 195.947 136.333Z" fill="#51B3C3"/>
<path opacity="0.4" d="M105.013 123.499L110.221 131.226L139.668 125.167L154.845 137.338L167.988 133.65L180.587 132.301C172.77 117.359 165.52 102.056 159.618 88.7743C159.618 93.4643 139.668 104.161 114.471 107.534C112.98 110.708 109.599 116.338 105.013 123.499Z" fill="white"/>
<path d="M154.845 138.343C154.62 138.343 154.397 138.267 154.217 138.122L139.408 126.246L110.423 132.21C110.024 132.292 109.615 132.126 109.387 131.788L104.18 124.061C103.956 123.728 103.95 123.294 104.167 122.957C109.019 115.379 112.18 110.046 113.561 107.108C113.706 106.798 113.998 106.584 114.337 106.539C129.513 104.507 140.738 100.149 146.079 97.7329C155.275 93.5719 158.613 90.0959 158.613 88.775C158.613 88.3003 158.945 87.8903 159.409 87.7918C159.875 87.6926 160.344 87.9332 160.536 88.3666C165.165 98.7838 172.555 114.782 181.477 131.836C181.631 132.13 181.629 132.482 181.472 132.775C181.316 133.068 181.024 133.265 180.693 133.301L168.178 134.64L155.116 138.305C155.027 138.331 154.936 138.343 154.845 138.343ZM139.668 124.162C139.894 124.162 140.117 124.239 140.297 124.383L155.071 136.231L167.716 132.682C167.77 132.667 167.825 132.657 167.881 132.651L179.014 131.459C170.939 115.937 164.165 101.394 159.621 91.249C158.969 92.116 157.998 93.0389 156.714 94.0114C154.321 95.8237 150.931 97.7436 146.908 99.564C141.53 101.997 130.3 106.362 115.141 108.458C113.66 111.475 110.661 116.523 106.215 123.484L110.678 130.106L139.465 124.182C139.532 124.169 139.6 124.162 139.668 124.162Z" fill="#51B3C3"/>
<path d="M30.8257 231.892C30.4495 231.892 30.1048 231.682 29.9322 231.348C29.7594 231.013 29.7889 230.609 30.0083 230.302C30.756 229.258 104.885 125.571 113.561 107.108C113.706 106.798 113.999 106.584 114.337 106.539C129.513 104.507 140.739 100.149 146.079 97.7329C155.275 93.5719 158.613 90.0959 158.613 88.775C158.613 88.3003 158.945 87.8903 159.41 87.7918C159.875 87.6926 160.344 87.9332 160.537 88.3666C166.515 101.822 178.63 127.99 192.598 152.081C206.246 175.62 217.828 190.651 227.021 196.756C227.484 197.063 227.61 197.687 227.303 198.149C226.996 198.612 226.372 198.738 225.91 198.431C216.456 192.154 204.664 176.898 190.859 153.089C177.529 130.098 165.886 105.232 159.622 91.2486C158.969 92.1156 157.998 93.0386 156.714 94.0111C154.322 95.8234 150.931 97.7433 146.908 99.5637C141.53 101.997 130.301 106.361 115.142 108.457C105.953 127.181 42.4736 216.305 32.7821 229.878L287.489 229.349L252.092 97.6552L219.294 89.9113L205.135 110.566C204.82 111.024 204.195 111.141 203.737 110.827C203.28 110.513 203.163 109.888 203.477 109.43L218.026 88.2065C218.261 87.8645 218.681 87.702 219.086 87.7965L253.138 95.8365C253.497 95.9216 253.782 96.1969 253.877 96.5537L289.77 230.091C289.851 230.392 289.787 230.714 289.597 230.962C289.408 231.211 289.114 231.356 288.801 231.357L30.8277 231.892C30.827 231.892 30.8264 231.892 30.8257 231.892Z" fill="#51B3C3"/>
<path opacity="0.14" d="M222.036 118.875L236.806 123.193L239.533 127.985L252.986 164.422L234.835 163.561V126.965L222.036 118.875Z" fill="#686868"/>
<path opacity="0.4" d="M238.342 113.056L244.873 109.538L253.581 122.963L263.015 134.421L252.907 96.815L218.855 88.775L208.702 103.585L213.325 106.865H228.546L238.342 113.056Z" fill="white"/>
<path d="M263.015 135.426C262.722 135.426 262.435 135.298 262.239 135.06L252.805 123.602C252.781 123.572 252.759 123.542 252.738 123.51L244.535 110.863L238.819 113.942C238.5 114.114 238.112 114.1 237.806 113.907L228.255 107.87H213.325C213.117 107.87 212.913 107.805 212.744 107.685L208.12 104.405C207.673 104.088 207.563 103.47 207.873 103.017L218.026 88.2068C218.261 87.8648 218.681 87.7013 219.086 87.7968L253.138 95.8368C253.497 95.9219 253.782 96.1973 253.877 96.554L263.985 134.16C264.108 134.617 263.895 135.098 263.475 135.315C263.329 135.39 263.171 135.426 263.015 135.426ZM254.393 122.368L260.838 130.197L252.092 97.6552L219.294 89.9113L210.09 103.338L213.645 105.86H228.546C228.736 105.86 228.922 105.914 229.083 106.015L238.383 111.893L244.397 108.653C244.857 108.404 245.432 108.552 245.716 108.991L254.393 122.368Z" fill="#51B3C3"/>
<path d="M234.835 168.817C234.28 168.817 233.83 168.367 233.83 167.812V127.556L198.636 107.997L174.216 119.829C173.717 120.071 173.115 119.863 172.873 119.363C172.631 118.863 172.84 118.262 173.339 118.02L198.229 105.96C198.524 105.817 198.869 105.827 199.156 105.986L235.323 126.086C235.642 126.264 235.84 126.6 235.84 126.965V167.811C235.84 168.367 235.39 168.817 234.835 168.817Z" fill="#51B3C3"/>
<path d="M167.74 166.696C169.621 186.55 160.601 205.536 147.257 205.536C133.912 205.536 124.892 186.55 126.773 166.696C128.363 149.923 137.439 138.122 147.257 138.122C157.074 138.122 166.151 149.923 167.74 166.696Z" fill="#92CED7"/>
<path d="M147.257 206.541C142.705 206.541 138.403 204.457 134.816 200.513C128.073 193.101 124.523 179.79 125.773 166.602C127.365 149.793 136.601 137.117 147.257 137.117C157.912 137.117 167.148 149.793 168.741 166.602C169.99 179.79 166.44 193.101 159.697 200.513C156.11 204.457 151.808 206.541 147.257 206.541ZM147.257 139.127C142.767 139.127 138.322 141.821 134.74 146.713C130.989 151.836 128.515 158.967 127.774 166.791C126.575 179.442 129.923 192.148 136.302 199.161C139.499 202.674 143.287 204.531 147.256 204.531C151.226 204.531 155.014 202.674 158.21 199.161C164.59 192.148 167.938 179.442 166.739 166.791C165.998 158.967 163.524 151.836 159.773 146.713C156.192 141.821 151.747 139.127 147.257 139.127Z" fill="#51B3C3"/>
<path d="M147.257 231.357C146.702 231.357 146.252 230.907 146.252 230.352V155.972C146.252 155.417 146.702 154.967 147.257 154.967C147.812 154.967 148.262 155.417 148.262 155.972V230.352C148.262 230.907 147.812 231.357 147.257 231.357Z" fill="#51B3C3"/>
<path d="M147.257 196.751C146.99 196.751 146.734 196.645 146.546 196.456L138.957 188.868C138.565 188.475 138.565 187.839 138.957 187.447C139.349 187.054 139.986 187.054 140.378 187.447L147.256 194.324L154.134 187.447C154.527 187.054 155.163 187.054 155.556 187.447C155.948 187.839 155.948 188.475 155.556 188.868L147.967 196.456C147.779 196.645 147.523 196.751 147.257 196.751Z" fill="#51B3C3"/>
<path d="M147.257 186.022C146.999 186.022 146.742 185.924 146.546 185.728L138.957 178.14C138.565 177.747 138.565 177.111 138.957 176.719C139.35 176.326 139.986 176.326 140.379 176.719L147.257 183.596L154.135 176.719C154.527 176.326 155.164 176.326 155.557 176.719C155.949 177.111 155.949 177.747 155.557 178.14L147.968 185.728C147.771 185.924 147.514 186.022 147.257 186.022Z" fill="#51B3C3"/>
<path d="M147.257 175.294C146.999 175.294 146.742 175.196 146.546 175L138.957 167.411C138.565 167.019 138.565 166.382 138.957 165.99C139.35 165.598 139.986 165.598 140.378 165.99L147.257 172.868L154.135 165.99C154.527 165.598 155.164 165.598 155.556 165.99C155.949 166.382 155.949 167.019 155.556 167.411L147.967 175C147.771 175.196 147.514 175.294 147.257 175.294Z" fill="#51B3C3"/>
<path d="M147.257 164.566C146.999 164.566 146.742 164.468 146.546 164.272L138.957 156.683C138.565 156.291 138.565 155.654 138.957 155.262C139.35 154.869 139.986 154.869 140.378 155.262L147.257 162.14L154.135 155.262C154.527 154.869 155.164 154.869 155.556 155.262C155.949 155.654 155.949 156.291 155.556 156.683L147.967 164.272C147.771 164.468 147.514 164.566 147.257 164.566Z" fill="#51B3C3"/>
<path d="M142.203 191.92C143.501 201.989 137.28 211.617 128.075 211.617C118.869 211.617 112.648 201.988 113.946 191.92C115.042 183.414 121.302 177.429 128.075 177.429C134.847 177.429 141.107 183.414 142.203 191.92Z" fill="#92CED7"/>
<path d="M128.075 212.622C124.038 212.622 120.265 210.859 117.45 207.657C113.875 203.593 112.192 197.661 112.949 191.791C114.078 183.031 120.58 176.424 128.075 176.424C135.569 176.424 142.071 183.031 143.2 191.791C143.957 197.661 142.274 203.593 138.699 207.658C135.884 210.859 132.111 212.622 128.075 212.622ZM128.075 178.434C121.588 178.434 115.942 184.287 114.942 192.048C114.258 197.354 115.76 202.693 118.959 206.331C121.422 209.131 124.574 210.612 128.075 210.612C131.574 210.612 134.726 209.131 137.19 206.331C140.388 202.693 141.89 197.354 141.207 192.048C140.207 184.287 134.561 178.434 128.075 178.434Z" fill="#51B3C3"/>
<path d="M128.075 231.357C127.519 231.357 127.07 230.907 127.07 230.352V182.384C127.07 181.829 127.519 181.379 128.075 181.379C128.63 181.379 129.08 181.829 129.08 182.384V230.352C129.08 230.907 128.63 231.357 128.075 231.357Z" fill="#51B3C3"/>
<path d="M128.075 207.486C127.817 207.486 127.56 207.388 127.364 207.192L122.13 201.957C121.737 201.565 121.737 200.929 122.13 200.536C122.522 200.144 123.159 200.144 123.551 200.536L128.075 205.06L132.599 200.536C132.991 200.144 133.627 200.144 134.02 200.536C134.412 200.929 134.412 201.565 134.02 201.957L128.785 207.192C128.589 207.388 128.332 207.486 128.075 207.486Z" fill="#51B3C3"/>
<path d="M128.075 200.086C127.808 200.086 127.552 199.98 127.364 199.792L122.129 194.557C121.737 194.164 121.737 193.528 122.129 193.136C122.522 192.743 123.158 192.744 123.551 193.136L128.075 197.66L132.598 193.136C132.991 192.743 133.627 192.743 134.019 193.136C134.412 193.528 134.412 194.164 134.019 194.557L128.785 199.792C128.597 199.98 128.341 200.086 128.075 200.086Z" fill="#51B3C3"/>
<path d="M128.075 192.686C127.808 192.686 127.552 192.58 127.364 192.392L122.129 187.157C121.737 186.764 121.737 186.128 122.129 185.736C122.522 185.343 123.158 185.343 123.551 185.736L128.075 190.26L132.598 185.736C132.991 185.343 133.627 185.343 134.019 185.736C134.412 186.128 134.412 186.764 134.019 187.157L128.785 192.392C128.597 192.58 128.341 192.686 128.075 192.686Z" fill="#51B3C3"/>
<path d="M318.167 172.344C315.434 169.175 314.719 165.172 316.13 161.474C316.863 159.554 317.264 157.468 317.264 155.287C317.264 145.807 309.684 138.122 300.334 138.122C290.983 138.122 283.403 145.807 283.403 155.287C283.403 157.468 283.805 159.554 284.537 161.474C285.948 165.172 285.234 169.175 282.501 172.344C279.18 176.196 277.184 181.14 277.184 186.532C277.184 198.822 287.549 208.784 300.334 208.784C313.12 208.784 323.484 198.822 323.484 186.532C323.484 181.14 321.488 176.196 318.167 172.344Z" fill="#92CED7"/>
<path d="M300.334 209.789C287.015 209.789 276.179 199.356 276.179 186.532C276.179 181.119 278.154 175.847 281.74 171.688C284.216 168.817 284.893 165.225 283.599 161.832C282.802 159.745 282.399 157.542 282.399 155.286C282.399 145.267 290.445 137.117 300.334 137.117C310.224 137.117 318.27 145.268 318.27 155.286C318.27 157.542 317.866 159.745 317.07 161.832C315.776 165.225 316.453 168.817 318.929 171.688C322.515 175.847 324.49 181.118 324.49 186.532C324.489 199.356 313.653 209.789 300.334 209.789ZM300.334 139.127C291.553 139.127 284.408 146.376 284.408 155.287C284.408 157.297 284.767 159.258 285.476 161.116C287.043 165.221 286.236 169.553 283.262 173.001C279.991 176.795 278.189 181.6 278.189 186.533C278.189 198.248 288.123 207.78 300.334 207.78C312.545 207.78 322.479 198.248 322.479 186.533C322.479 181.6 320.677 176.795 317.406 173.001C317.405 173.001 317.405 173.001 317.405 173.001C314.432 169.553 313.625 165.221 315.191 161.116C315.9 159.258 316.259 157.297 316.259 155.287C316.26 146.376 309.115 139.127 300.334 139.127Z" fill="#51B3C3"/>
<path d="M300.334 231.892C299.779 231.892 299.329 231.442 299.329 230.887V149.562C299.329 149.007 299.779 148.557 300.334 148.557C300.889 148.557 301.339 149.007 301.339 149.562V230.887C301.339 231.442 300.889 231.892 300.334 231.892Z" fill="#51B3C3"/>
<path d="M300.334 201.496C300.077 201.496 299.82 201.398 299.623 201.202L291.254 192.833C290.862 192.44 290.862 191.804 291.254 191.412C291.647 191.019 292.283 191.019 292.675 191.412L300.334 199.07L307.993 191.412C308.385 191.019 309.021 191.019 309.414 191.412C309.806 191.804 309.806 192.44 309.414 192.833L301.044 201.202C300.848 201.398 300.591 201.496 300.334 201.496Z" fill="#51B3C3"/>
<path d="M300.334 189.665C300.067 189.665 299.812 189.559 299.623 189.37L291.254 181.001C290.862 180.608 290.862 179.972 291.254 179.58C291.647 179.187 292.283 179.187 292.675 179.58L300.334 187.238L307.993 179.58C308.385 179.187 309.021 179.187 309.414 179.58C309.806 179.972 309.806 180.609 309.414 181.001L301.044 189.37C300.856 189.559 300.6 189.665 300.334 189.665Z" fill="#51B3C3"/>
<path d="M300.334 177.833C300.067 177.833 299.812 177.727 299.623 177.538L291.254 169.169C290.862 168.776 290.862 168.14 291.254 167.748C291.647 167.355 292.283 167.355 292.675 167.748L300.334 175.406L307.993 167.748C308.385 167.355 309.021 167.355 309.414 167.748C309.806 168.14 309.806 168.776 309.414 169.169L301.044 177.538C300.856 177.727 300.6 177.833 300.334 177.833Z" fill="#51B3C3"/>
<path d="M300.334 166.001C300.067 166.001 299.812 165.895 299.623 165.706L291.254 157.337C290.862 156.944 290.862 156.308 291.254 155.915C291.647 155.523 292.283 155.523 292.675 155.915L300.334 163.574L307.993 155.915C308.385 155.523 309.021 155.523 309.414 155.915C309.806 156.308 309.806 156.944 309.414 157.336L301.044 165.706C300.856 165.895 300.6 166.001 300.334 166.001Z" fill="#51B3C3"/>
<path d="M51.5609 90.7223C46.3164 89.6175 39.9665 98.6659 37.322 105.608C32.6829 117.788 35.448 133.987 41.2053 135.381C47.3311 136.864 58.7309 122.044 58.6803 107.55C58.6582 101.228 56.4458 91.7511 51.5609 90.7223Z" fill="#92CED7"/>
<path d="M314.946 230.815H25.7203V249.549L37.7096 263.071L40.0057 252.579L56.3212 269.637C65.5169 268.387 74.713 267.137 83.9088 265.887C91.0201 253.359 94.1162 250.074 95.348 250.575C97.8237 251.581 92.5384 267.789 97.4304 270.395C100.216 271.878 104.831 268.172 106.551 270.098C107.603 271.277 106.219 273.047 107.255 275.058C108.461 277.397 111.819 277.883 113.775 278.166C120.196 279.095 125.855 276.628 128.981 274.902C132.544 272.491 136.106 270.08 139.668 267.668C142.198 266.327 149.937 262.648 159.813 264.388C173.484 266.797 180.321 277.667 181.378 279.409C188.326 279.409 195.275 279.409 202.224 279.409C204.705 276.589 207.186 273.769 209.667 270.949C222.585 274.52 235.504 278.091 248.423 281.663C257.813 280.724 267.203 279.785 276.593 278.846C278.223 276.432 279.852 274.018 281.481 271.605L300.334 270.293C300.334 270.293 303.754 271.605 303.754 266.356C303.754 261.107 305.722 257.827 305.722 257.827C305.722 257.827 302.442 251.922 304.41 249.954C306.378 247.986 306.378 247.986 306.378 247.986L314.946 230.815Z" fill="white"/>
<path d="M314.946 231.82H25.7203C25.1652 231.82 24.7153 231.37 24.7153 230.815C24.7153 230.26 25.1652 229.81 25.7203 229.81H314.946C315.501 229.81 315.951 230.26 315.951 230.815C315.951 231.37 315.501 231.82 314.946 231.82Z" fill="#534668"/>
<path d="M213.325 231.82H160.399C159.844 231.82 159.394 231.37 159.394 230.815C159.394 230.26 159.844 229.81 160.399 229.81H213.325C213.88 229.81 214.33 230.26 214.33 230.815C214.33 231.37 213.88 231.82 213.325 231.82Z" fill="#534668"/>
<path d="M281.481 179.739L224.491 149.104L167.784 179.739L160.399 230.815H288.866L281.481 179.739Z" fill="#F4646C"/>
<path opacity="0.23" d="M218.855 230.815V179.739H167.784L160.399 230.815H218.855Z" fill="#F4646C"/>
<path d="M199.514 230.887C199.514 230.887 203.17 223.807 206.072 222.661C212.319 220.194 208.524 217.538 208.524 217.538C208.524 217.538 199.714 209.557 193.172 193.846C195.269 206.149 196.595 227.969 199.514 230.887Z" fill="#F4536D"/>
<path d="M166.597 179.739L160.399 230.815H164.135L170.333 179.739H166.597Z" fill="#FA8F97"/>
<path d="M167.784 179.739H281.481L224.491 149.104L167.784 179.739Z" fill="#F4646C"/>
<path opacity="0.7" d="M225.975 151.383L278.725 179.739H281.481L224.491 149.104L167.784 179.739H173.487L225.975 151.383Z" fill="#FA8F97"/>
<path d="M281.481 179.739L224.491 149.104L214.625 179.739L213.325 230.815H288.866L281.481 179.739Z" fill="#DD4A58"/>
<path opacity="0.4" d="M281.481 179.739L224.491 149.104L223.276 152.876L273.251 179.739L280.637 230.815H288.866L281.481 179.739Z" fill="#C42C49"/>
<path opacity="0.4" d="M227.132 150.524L224.491 149.104L214.625 179.739L213.325 230.815H216.423L217.724 179.739L227.132 150.524Z" fill="#C42C49"/>
<path opacity="0.41" d="M288.866 230.815L281.481 179.739H214.625L213.325 230.815H288.866Z" fill="#534668"/>
<path d="M288.866 231.82H213.325C213.054 231.82 212.795 231.711 212.605 231.516C212.416 231.323 212.314 231.061 212.32 230.79L213.62 179.713C213.623 179.617 213.639 179.522 213.669 179.431L223.534 148.797C223.625 148.513 223.838 148.284 224.115 148.173C224.391 148.061 224.704 148.078 224.966 148.219L281.957 178.854C282.238 179.005 282.43 179.28 282.476 179.595L289.861 230.671C289.903 230.96 289.817 231.252 289.626 231.473C289.435 231.693 289.158 231.82 288.866 231.82ZM214.356 229.81H287.705L280.559 180.384L225.077 150.561L215.626 179.909L214.356 229.81Z" fill="#534668"/>
<path d="M281.481 180.744H167.784C167.324 180.744 166.923 180.431 166.81 179.985C166.697 179.539 166.902 179.073 167.307 178.854L224.013 148.22C224.31 148.06 224.668 148.059 224.966 148.219L281.957 178.853C282.362 179.072 282.568 179.538 282.456 179.984C282.343 180.431 281.942 180.744 281.481 180.744ZM171.759 178.734H277.489L224.492 150.246L171.759 178.734Z" fill="#534668"/>
<path d="M189.513 179.739L184.44 230.887L198.668 230.815V215.033L189.513 179.739Z" fill="#534668"/>
<path d="M184.44 231.892C184.157 231.892 183.888 231.773 183.697 231.564C183.505 231.354 183.411 231.072 183.44 230.789L188.513 179.64C188.561 179.155 188.95 178.775 189.435 178.737C189.928 178.702 190.363 179.016 190.486 179.487L199.641 214.781C199.662 214.863 199.673 214.948 199.673 215.033V230.815C199.673 231.368 199.226 231.817 198.673 231.82L184.445 231.892C184.443 231.892 184.442 231.892 184.44 231.892ZM189.956 185.451L185.55 229.877L197.663 229.815V215.161L189.956 185.451Z" fill="#534668"/>
<path d="M189.513 179.739C189.513 179.739 195.437 208.091 206.072 218.727C200.09 221.371 198.668 230.815 198.668 230.815C198.668 230.815 194.949 223.37 192.521 209.785C191.38 203.4 189.513 179.739 189.513 179.739Z" fill="#FAB56A"/>
<g opacity="0.45">
<path opacity="0.45" d="M190.179 182.624C189.739 180.816 189.514 179.739 189.514 179.739C189.514 179.739 189.55 180.202 189.616 181.015C189.783 181.501 189.97 182.038 190.179 182.624Z" fill="#FAB56A"/>
<path opacity="0.45" d="M205.095 219.244C205.407 219.053 205.731 218.877 206.072 218.727C205.942 218.597 205.813 218.461 205.684 218.326C205.474 218.623 205.279 218.931 205.095 219.244Z" fill="#FAB56A"/>
<path opacity="0.45" d="M194.434 207.819C193.345 203.867 191.334 193.069 190.001 185.657C190.632 193.102 191.745 205.44 192.521 209.784C194.949 223.37 198.668 230.815 198.668 230.815C198.668 230.815 199.127 227.776 200.614 224.664C198.999 221.323 196.591 215.653 194.434 207.819Z" fill="#FAB56A"/>
</g>
<path d="M198.667 231.82C198.291 231.82 197.941 231.609 197.769 231.264C197.614 230.955 193.957 223.534 191.531 209.961C190.394 203.601 188.588 180.786 188.511 179.818C188.47 179.293 188.84 178.825 189.361 178.746C189.88 178.666 190.375 179.001 190.492 179.515C190.561 179.816 197.493 209.7 206.742 217.978C206.997 218.206 207.118 218.547 207.065 218.884C207.011 219.221 206.79 219.508 206.478 219.646C201.064 222.039 199.675 230.876 199.661 230.965C199.596 231.398 199.257 231.739 198.825 231.808C198.772 231.816 198.719 231.82 198.667 231.82ZM191.453 190.738C192.082 197.792 192.904 206.218 193.51 209.608C195.045 218.195 197.117 224.336 198.397 227.618C199.26 224.774 201.029 220.661 204.396 218.493C200.624 214.5 196.877 207.058 193.242 196.334C192.585 194.396 191.986 192.506 191.453 190.738Z" fill="#534668"/>
<path d="M288.866 231.82H160.399C160.107 231.82 159.83 231.693 159.639 231.473C159.448 231.252 159.363 230.96 159.404 230.671L166.789 179.595C166.835 179.28 167.027 179.006 167.306 178.854L224.012 148.22C224.31 148.06 224.668 148.059 224.966 148.219L281.956 178.853C282.237 179.004 282.43 179.279 282.475 179.595L289.86 230.671C289.902 230.96 289.817 231.252 289.626 231.473C289.435 231.693 289.158 231.82 288.866 231.82ZM161.56 229.81H287.705L280.559 180.384L224.492 150.246L168.707 180.383L161.56 229.81Z" fill="#534668"/>
<path d="M281.481 180.744H167.784C167.324 180.744 166.923 180.431 166.81 179.985C166.697 179.539 166.902 179.073 167.307 178.854L224.013 148.22C224.31 148.06 224.668 148.059 224.966 148.219L281.957 178.853C282.362 179.072 282.568 179.538 282.456 179.984C282.343 180.431 281.942 180.744 281.481 180.744ZM171.759 178.734H277.489L224.492 150.246L171.759 178.734Z" fill="#534668"/>
<path d="M96.6297 230.815H67.1497C64.5595 230.815 62.4597 228.715 62.4597 226.125C62.4597 223.535 64.5595 221.435 67.1497 221.435H96.6297C99.2199 221.435 101.32 223.535 101.32 226.125C101.32 228.715 99.2199 230.815 96.6297 230.815Z" fill="#A3533B"/>
<g opacity="0.42">
<path opacity="0.42" d="M96.6833 227.249C95.7232 227.249 94.7149 226.735 94.1477 226.446C93.2992 226.014 92.8285 225.556 92.4509 225.188C92.0774 224.824 91.7826 224.537 91.2607 224.385C90.2175 224.081 88.9127 224.528 87.3807 225.712C87.3073 225.769 87.2025 225.755 87.1459 225.682C87.0893 225.608 87.1027 225.504 87.176 225.447C88.7971 224.194 90.2034 223.729 91.3545 224.063C91.9565 224.239 92.2941 224.568 92.6848 224.948C93.0653 225.319 93.4965 225.739 94.3001 226.148C95.0341 226.522 96.5617 227.299 97.5801 226.685C98.4829 226.141 98.8196 224.593 98.3985 222.921C98.3761 222.831 98.4303 222.741 98.5201 222.718C98.6102 222.697 98.701 222.75 98.7235 222.839C99.1874 224.682 98.7975 226.343 97.7533 226.973C97.423 227.171 97.0568 227.249 96.6833 227.249Z" fill="#534668"/>
</g>
<g opacity="0.42">
<path opacity="0.42" d="M77.9632 228.534C77.454 228.534 77.1063 228.443 76.7713 228.324C75.8125 227.983 74.8902 227.135 73.9985 226.314C73.1472 225.531 72.2675 224.721 71.357 224.344C71.2716 224.309 71.231 224.21 71.2662 224.125C71.3017 224.04 71.4002 223.998 71.485 224.034C72.4504 224.435 73.3526 225.265 74.2253 226.067C75.1324 226.902 75.989 227.69 76.8835 228.008C77.797 228.332 78.9086 228.434 84.1051 226.584C84.1912 226.552 84.2877 226.599 84.3192 226.686C84.35 226.773 84.3047 226.869 84.2173 226.9C80.6687 228.163 78.9886 228.534 77.9632 228.534Z" fill="#534668"/>
</g>
<g opacity="0.42">
<path opacity="0.42" d="M78.2322 230.318C77.9555 230.318 77.6881 230.297 77.4355 230.249C77.3447 230.232 77.2848 230.144 77.3022 230.053C77.3196 229.962 77.4084 229.903 77.4978 229.92C79.9732 230.387 84.1315 228.108 84.1734 228.085C84.2541 228.041 84.356 228.069 84.4012 228.15C84.4461 228.231 84.4166 228.333 84.3359 228.378C84.1777 228.465 80.7966 230.318 78.2322 230.318Z" fill="#534668"/>
</g>
<g opacity="0.42">
<path opacity="0.42" d="M89.6714 231.036C88.3314 231.036 86.7951 230.871 86.0765 230.204C85.7978 229.945 85.6564 229.628 85.6564 229.262C85.6564 227.68 89.46 226.466 89.9247 226.324C91.7749 225.61 92.9454 226.788 94.1845 228.036L94.3922 228.244C94.8994 228.751 94.8854 229.182 94.7839 229.455C94.4301 230.406 92.5635 230.872 91.0724 230.982C90.6731 231.012 90.1866 231.036 89.6714 231.036ZM90.9997 226.445C90.7012 226.445 90.3836 226.505 90.0399 226.638C90.0362 226.64 90.0322 226.641 90.0282 226.642C88.9053 226.985 85.9911 228.125 85.9911 229.262C85.9911 229.534 86.0936 229.762 86.3043 229.958C86.9633 230.57 88.6919 230.823 91.0479 230.648C92.8248 230.517 94.2318 229.978 94.47 229.338C94.5674 229.076 94.4616 228.787 94.1554 228.481L93.947 228.271C92.9879 227.306 92.1323 226.445 90.9997 226.445ZM89.9793 226.482H89.9826H89.9793Z" fill="#534668"/>
</g>
<g opacity="0.46">
<path opacity="0.46" d="M65.2995 229.469C64.4567 229.469 63.4875 229.338 62.9197 228.827C62.5977 228.537 62.4343 228.156 62.4343 227.695C62.4343 226.117 65.2362 224.853 65.4369 224.765C66.7919 224.02 67.665 225.276 68.5098 226.491L68.6552 226.699C69.0689 227.29 68.9929 227.772 68.8562 228.071C68.5396 228.766 67.5544 229.281 66.2858 229.415C66.0104 229.444 65.667 229.469 65.2995 229.469ZM66.2184 224.883C66.0228 224.883 65.8154 224.938 65.5926 225.062C65.588 225.064 65.5833 225.067 65.5786 225.069C65.5504 225.081 62.7696 226.312 62.7696 227.696C62.7696 228.063 62.8922 228.351 63.1441 228.578C63.8627 229.225 65.399 229.172 66.2509 229.082C67.3849 228.963 68.2881 228.512 68.5517 227.933C68.6978 227.612 68.6405 227.262 68.3812 226.892L68.2355 226.683C67.5735 225.731 66.9836 224.883 66.2184 224.883ZM65.5116 224.915H65.5149H65.5116Z" fill="#A3533B"/>
</g>
<g opacity="0.42">
<path opacity="0.42" d="M72.3047 229.869C71.8936 229.869 71.4621 229.8 71.1958 229.56C71.0323 229.413 70.9496 229.22 70.9496 228.989C70.9496 228.242 72.1609 227.681 72.3331 227.605C73.0041 227.24 73.4346 227.856 73.8132 228.401L73.8775 228.493C74.0862 228.791 74.0457 229.039 73.975 229.194C73.8212 229.532 73.3552 229.781 72.7599 229.844C72.6189 229.859 72.4635 229.869 72.3047 229.869ZM72.7248 227.833C72.6507 227.833 72.5733 227.855 72.4889 227.902C72.4842 227.905 72.4795 227.907 72.4748 227.909C72.1663 228.044 71.2849 228.532 71.2849 228.989C71.2849 229.124 71.3291 229.229 71.4203 229.311C71.6337 229.503 72.11 229.575 72.7258 229.511C73.1891 229.462 73.5693 229.279 73.6711 229.056C73.7217 228.944 73.6999 228.823 73.6038 228.686L73.5388 228.593C73.1954 228.099 72.978 227.833 72.7248 227.833ZM72.4078 227.755H72.4112H72.4078Z" fill="#534668"/>
</g>
<g opacity="0.42">
<path opacity="0.42" d="M78.3484 227.141C78.2875 227.141 78.2285 227.139 78.1709 227.135C77.5036 227.088 76.3893 226.916 76.3893 226.279C76.3893 225.565 77.4989 225.021 77.7451 224.908C78.0262 224.591 78.9283 223.712 80.2171 223.797C81.2167 223.862 82.4059 224.524 82.3828 225.249C82.3611 225.937 81.3045 226.323 80.081 226.771C79.4077 227.017 78.8258 227.141 78.3484 227.141ZM80.0499 224.127C78.9193 224.127 78.1267 224.979 77.9742 225.156C77.9578 225.175 77.9374 225.19 77.9143 225.2C77.6057 225.335 76.7243 225.823 76.7243 226.28C76.7243 226.522 77.3411 226.742 78.191 226.801C78.7665 226.839 79.4747 226.636 79.9661 226.456C80.9825 226.085 82.0338 225.7 82.0485 225.239C82.0632 224.77 81.0934 224.19 80.1956 224.132C80.1467 224.129 80.0981 224.127 80.0499 224.127ZM77.8473 225.047H77.8506H77.8473Z" fill="#534668"/>
</g>
<g opacity="0.42">
<path opacity="0.42" d="M91.7437 230.503C91.4141 230.503 91.0335 230.446 90.6131 230.384L90.4975 230.366C89.4868 230.217 87.9592 229.992 87.9592 229.155C87.9592 228.023 89.9665 227.135 90.0523 227.097C90.0644 227.091 90.0774 227.088 90.0905 227.086C90.1495 227.075 91.533 226.847 92.3792 227.831C92.9434 228.486 93.2097 229.576 92.7072 230.153C92.4767 230.417 92.1487 230.503 91.7437 230.503ZM90.1675 227.413C89.6282 227.653 88.2949 228.406 88.2949 229.155C88.2949 229.702 89.7599 229.919 90.5471 230.035L90.6627 230.053C91.5303 230.182 92.1571 230.275 92.4553 229.933C92.8268 229.506 92.5879 228.586 92.126 228.05C91.4422 227.256 90.3324 227.388 90.1675 227.413Z" fill="#534668"/>
</g>
<g opacity="0.42">
<path opacity="0.42" d="M90.1056 229.972C89.7796 229.972 89.4362 229.917 89.2218 229.724C89.0892 229.605 89.0192 229.442 89.0192 229.254C89.0192 228.656 89.9685 228.213 90.1099 228.151C90.6596 227.853 91.0154 228.366 91.3022 228.779L91.3518 228.85C91.5236 229.095 91.4894 229.3 91.4305 229.429C91.3059 229.702 90.9344 229.903 90.4607 229.953C90.3501 229.965 90.2292 229.972 90.1056 229.972ZM90.4258 228.401C90.3749 228.401 90.322 228.416 90.2654 228.448C90.2607 228.451 90.256 228.453 90.2513 228.455C89.9046 228.607 89.3542 228.958 89.3542 229.255C89.3542 229.349 89.3833 229.419 89.4463 229.475C89.6031 229.617 89.9605 229.67 90.4258 229.62C90.7658 229.585 91.0536 229.449 91.126 229.291C91.138 229.264 91.1752 229.182 91.0774 229.043L91.0271 228.971C90.7695 228.599 90.6084 228.401 90.4258 228.401ZM90.184 228.301H90.1873H90.184Z" fill="#534668"/>
</g>
<path d="M96.6297 231.82H67.1497C64.0094 231.82 61.4547 229.265 61.4547 226.125C61.4547 222.985 64.0094 220.43 67.1497 220.43H96.6297C99.77 220.43 102.325 222.985 102.325 226.125C102.325 229.265 99.77 231.82 96.6297 231.82ZM67.1497 222.44C65.1179 222.44 63.4647 224.093 63.4647 226.125C63.4647 228.157 65.1179 229.81 67.1497 229.81H96.6297C98.6615 229.81 100.315 228.157 100.315 226.125C100.315 224.093 98.6615 222.44 96.6297 222.44H67.1497Z" fill="#534668"/>
<path d="M56.3212 231.82C55.7661 231.82 55.3162 231.37 55.3162 230.815V177.996C55.3162 177.441 55.7661 176.991 56.3212 176.991C56.8763 176.991 57.3262 177.441 57.3262 177.996V230.815C57.3262 231.37 56.8759 231.82 56.3212 231.82Z" fill="#534668"/>
<path d="M56.3212 179.001C55.2743 179.001 54.2918 178.431 53.6928 177.477L50.3893 172.213C50.0942 171.743 50.2362 171.123 50.7062 170.828C51.1763 170.533 51.7967 170.674 52.0918 171.144L55.3952 176.408C55.6277 176.778 55.9651 176.991 56.3212 176.991C56.677 176.991 57.0143 176.778 57.2468 176.408L60.5502 171.144C60.8454 170.674 61.4654 170.533 61.9358 170.828C62.4058 171.123 62.5478 171.743 62.2527 172.213L58.9493 177.477C58.3503 178.431 57.3677 179.001 56.3212 179.001Z" fill="#534668"/>
<path d="M108.54 231.82C107.985 231.82 107.535 231.37 107.535 230.815V177.996C107.535 177.441 107.985 176.991 108.54 176.991C109.095 176.991 109.545 177.441 109.545 177.996V230.815C109.545 231.37 109.095 231.82 108.54 231.82Z" fill="#534668"/>
<path d="M108.54 179.001C107.493 179.001 106.511 178.431 105.912 177.477L102.608 172.213C102.313 171.743 102.455 171.123 102.925 170.828C103.395 170.533 104.015 170.674 104.311 171.144L107.614 176.408C107.847 176.778 108.184 176.991 108.54 176.991C108.896 176.991 109.233 176.778 109.466 176.408L112.769 171.144C113.065 170.674 113.685 170.532 114.155 170.828C114.625 171.123 114.767 171.743 114.472 172.213L111.168 177.477C110.569 178.431 109.587 179.001 108.54 179.001Z" fill="#534668"/>
<path d="M113.621 177.215H51.2406C50.5006 177.215 49.9006 176.615 49.9006 175.875C49.9006 175.135 50.5006 174.535 51.2406 174.535H113.621C114.361 174.535 114.961 175.135 114.961 175.875C114.961 176.615 114.361 177.215 113.621 177.215Z" fill="#534668"/>
<path d="M75.1197 213.321C76.0744 214.869 76.4031 214.926 76.2734 217.928C76.0198 223.8 78.7263 226.541 81.9557 227.38C85.8035 228.38 87.6792 227.25 89.2982 225.805C95.816 219.987 90.2014 212.371 89.5924 211.828C89.5924 214.123 89.4289 217.362 87.9009 217.797C88.916 213.367 85.307 208.822 81.8897 207.451C83.7701 211.937 80.7902 213.884 82.1503 219.21C81.2874 215.612 76.5109 213.544 75.1197 213.321Z" fill="#FFB839"/>
<path opacity="0.47" d="M77.4486 216.221C78.1997 217.438 78.4583 217.483 78.3565 219.845C78.1571 224.465 80.2864 226.622 82.8274 227.282C85.8548 228.068 87.3308 227.18 88.6045 226.043C93.7323 221.465 89.315 215.474 88.8359 215.046C88.8359 216.852 88.7073 219.401 87.505 219.742C88.3036 216.257 85.4642 212.681 82.7754 211.603C84.2548 215.132 81.9105 216.664 82.9805 220.854C82.3011 218.024 78.5431 216.397 77.4486 216.221Z" fill="#ED4307"/>
<path opacity="0.47" d="M77.2624 217.605C78.0135 218.823 77.0835 220.704 78.1434 222.817C80.3286 227.173 80.2864 226.622 82.8274 227.282C85.8548 228.069 87.3308 227.18 88.6045 226.043C93.7323 221.466 89.315 215.474 88.836 215.046C88.836 216.852 88.7073 219.401 87.505 219.743C88.3037 216.258 86.4591 212.681 83.7701 211.603C84.4572 214.693 81.9102 216.664 82.9805 220.855C82.3011 218.024 78.3568 217.781 77.2624 217.605Z" fill="#FF4729"/>
<path opacity="0.46" d="M83.8887 226.396C81.7313 225.926 80.1534 224.099 80.2814 221.132C80.2991 220.723 80.3048 220.377 80.2981 220.076C81.076 220.616 83.6625 222.455 83.8887 223.316V222.489C83.5188 220.992 84.1577 219.098 84.3737 218.014C84.4749 217.506 84.5814 216.97 84.6226 216.388C85.6705 217.546 86.8983 220.057 86.8983 221.587L86.8226 222.678C86.8226 222.678 87.0487 222.327 87.5187 222.131C87.9887 221.935 88.7026 221.418 89.0081 220.73C89.1143 221.198 89.1733 221.694 89.1518 222.199C89.0952 223.528 88.5153 224.668 87.3783 225.682C86.6259 226.354 85.0042 226.639 83.8887 226.396Z" fill="#FFB839"/>
<path d="M71.0478 192.457C71.5731 197.653 76.4674 202.731 82.4304 202.731C88.3934 202.731 93.2878 197.653 93.8131 192.457H71.0478Z" fill="white"/>
<path d="M74.4413 192.457H71.0481C71.5734 197.653 76.4677 202.731 82.4307 202.731C83.0073 202.731 83.5737 202.682 84.1275 202.592C78.9554 201.746 74.9157 197.151 74.4413 192.457Z" fill="#B2B2B2"/>
<path d="M82.4304 203.736C75.6996 203.736 70.5939 197.956 70.0482 192.558C70.0197 192.275 70.1118 191.994 70.3024 191.783C70.4931 191.573 70.7637 191.452 71.0481 191.452H93.8134C94.0975 191.452 94.3685 191.572 94.5591 191.783C94.7497 191.994 94.8422 192.276 94.8134 192.558C94.2673 197.956 89.1613 203.736 82.4304 203.736ZM72.2337 193.462C73.2099 197.636 77.245 201.726 82.4304 201.726C87.6159 201.726 91.651 197.636 92.6272 193.462H72.2337Z" fill="#534668"/>
<path d="M82.4304 193.879C88.7169 193.879 93.8131 193.242 93.8131 192.457C93.8131 191.672 88.7169 191.035 82.4304 191.035C76.144 191.035 71.0478 191.672 71.0478 192.457C71.0478 193.242 76.144 193.879 82.4304 193.879Z" fill="#FAB56A"/>
<path d="M82.4304 194.883C79.3497 194.883 76.447 194.733 74.2574 194.459C71.5884 194.126 70.0431 193.691 70.0431 192.456C70.0431 191.222 71.5884 190.788 74.2574 190.454C76.4473 190.181 79.3497 190.03 82.4304 190.03C85.511 190.03 88.4138 190.18 90.6037 190.454C93.2727 190.787 94.818 191.222 94.818 192.456C94.818 193.691 93.2727 194.125 90.6037 194.459C88.4138 194.733 85.511 194.883 82.4304 194.883ZM93.0606 193.03H93.064H93.0606ZM74.4671 192.457C76.2674 192.685 78.9397 192.873 82.4304 192.873C85.9211 192.873 88.5937 192.685 90.394 192.457C88.5937 192.229 85.9211 192.04 82.4304 192.04C78.9397 192.04 76.2674 192.229 74.4671 192.457Z" fill="#534668"/>
<path d="M71.0478 194.905C69.6977 194.905 68.5992 193.807 68.5992 192.457C68.5992 191.106 69.6977 190.008 71.0478 190.008C72.3978 190.008 73.4963 191.106 73.4963 192.457C73.4963 193.807 72.3978 194.905 71.0478 194.905ZM71.0478 192.018C70.8059 192.018 70.6092 192.215 70.6092 192.457C70.6092 192.699 70.8059 192.895 71.0478 192.895C71.2896 192.895 71.4863 192.699 71.4863 192.457C71.4863 192.215 71.2896 192.018 71.0478 192.018Z" fill="#534668"/>
<path d="M93.813 194.905C92.463 194.905 91.3645 193.807 91.3645 192.457C91.3645 191.106 92.463 190.008 93.813 190.008C95.1631 190.008 96.2615 191.106 96.2615 192.457C96.2615 193.807 95.1631 194.905 93.813 194.905ZM93.813 192.018C93.5711 192.018 93.3745 192.215 93.3745 192.457C93.3745 192.699 93.5711 192.895 93.813 192.895C94.0549 192.895 94.2515 192.699 94.2515 192.457C94.2515 192.215 94.0549 192.018 93.813 192.018Z" fill="#534668"/>
<path d="M94.1145 191.683C94.0763 191.683 94.0375 191.68 93.9983 191.673C93.6338 191.61 93.3899 191.263 93.4536 190.898C93.7487 189.21 93.7534 186.785 92.1002 184.817C90.3113 182.689 87.0581 181.61 82.4304 181.61C77.8027 181.61 74.5495 182.689 72.7606 184.817C71.1074 186.785 71.1124 189.21 71.4072 190.898C71.4709 191.263 71.227 191.61 70.8625 191.673C70.4984 191.737 70.151 191.493 70.0873 191.129C69.5939 188.305 70.1637 185.825 71.7349 183.955C73.7901 181.509 77.3887 180.27 82.4304 180.27C87.4722 180.27 91.0707 181.509 93.126 183.955C94.6971 185.825 95.2673 188.305 94.7735 191.129C94.7169 191.454 94.4341 191.683 94.1145 191.683Z" fill="#534668"/>
<path d="M82.6572 178.204C81.2161 178.204 80.0436 177.031 80.0436 175.59C80.0436 174.148 81.2161 172.976 82.6572 172.976C84.0984 172.976 85.2709 174.148 85.2709 175.59C85.2712 177.031 84.0988 178.204 82.6572 178.204ZM82.6572 174.986C82.3243 174.986 82.0536 175.257 82.0536 175.59C82.0536 175.923 82.3246 176.194 82.6572 176.194C82.9899 176.194 83.2609 175.923 83.2609 175.59C83.2612 175.257 82.9902 174.986 82.6572 174.986Z" fill="#534668"/>
<path d="M81.0486 178.204C79.6074 178.204 78.4349 177.031 78.4349 175.59C78.4349 174.148 79.6074 172.976 81.0486 172.976C82.4897 172.976 83.6622 174.148 83.6622 175.59C83.6622 177.031 82.4897 178.204 81.0486 178.204ZM81.0486 174.986C80.7156 174.986 80.4449 175.257 80.4449 175.59C80.4449 175.923 80.7159 176.194 81.0486 176.194C81.3812 176.194 81.6522 175.923 81.6522 175.59C81.6522 175.257 81.3815 174.986 81.0486 174.986Z" fill="#534668"/>
<path d="M82.8297 182.58C81.942 182.58 81.2197 181.858 81.2197 180.97C81.2197 180.082 81.942 179.36 82.8297 179.36C83.7175 179.36 84.4401 180.082 84.4401 180.97C84.4401 181.857 83.7175 182.58 82.8297 182.58ZM82.8297 180.7C82.681 180.7 82.5597 180.821 82.5597 180.97C82.5597 181.119 82.681 181.24 82.8297 181.24C82.9788 181.24 83.1001 181.119 83.1001 180.97C83.1001 180.821 82.9788 180.7 82.8297 180.7Z" fill="#534668"/>
<path d="M81.4904 182.58C80.6026 182.58 79.8804 181.858 79.8804 180.97C79.8804 180.082 80.6026 179.36 81.4904 179.36C82.3781 179.36 83.1004 180.082 83.1004 180.97C83.1004 181.857 82.3781 182.58 81.4904 182.58ZM81.4904 180.7C81.3416 180.7 81.2204 180.821 81.2204 180.97C81.2204 181.119 81.3416 181.24 81.4904 181.24C81.6391 181.24 81.7604 181.119 81.7604 180.97C81.7604 180.821 81.6391 180.7 81.4904 180.7Z" fill="#534668"/>
<path d="M81.4904 184.446C81.1206 184.446 80.8204 184.145 80.8204 183.776L80.8177 183.725C80.796 183.378 80.8104 182.938 81.2613 182.118C81.5025 181.679 81.549 180.777 81.5233 180.22C80.6188 178.446 81.7862 176.195 81.8378 176.097C82.0107 175.77 82.416 175.645 82.7433 175.818C83.0699 175.991 83.1952 176.396 83.023 176.722C82.7604 177.225 82.201 178.738 82.7604 179.69C82.8117 179.778 82.8428 179.876 82.8505 179.977C82.8649 180.158 82.9751 181.781 82.4355 182.762C82.134 183.311 82.146 183.502 82.1547 183.641C82.1577 183.689 82.1601 183.733 82.1601 183.775C82.1604 184.145 81.8603 184.446 81.4904 184.446Z" fill="#534668"/>
<path d="M67.1497 230.815C69.7399 230.815 71.8397 228.715 71.8397 226.125C71.8397 223.535 69.7399 221.435 67.1497 221.435C64.5595 221.435 62.4597 223.535 62.4597 226.125C62.4597 228.715 64.5595 230.815 67.1497 230.815Z" fill="#B75A44"/>
<path d="M67.1497 231.82C64.0094 231.82 61.4547 229.265 61.4547 226.125C61.4547 222.985 64.0094 220.43 67.1497 220.43C70.29 220.43 72.8447 222.985 72.8447 226.125C72.8447 229.265 70.29 231.82 67.1497 231.82ZM67.1497 222.44C65.1179 222.44 63.4647 224.093 63.4647 226.125C63.4647 228.157 65.1179 229.81 67.1497 229.81C69.1815 229.81 70.8347 228.157 70.8347 226.125C70.8347 224.093 69.1815 222.44 67.1497 222.44Z" fill="#534668"/>
<g opacity="0.61">
<path opacity="0.61" d="M67.0268 228.851C65.8104 228.851 64.8208 227.686 64.8208 226.256C64.8208 224.825 65.8104 223.661 67.0268 223.661C68.2432 223.661 69.2331 224.825 69.2331 226.256C69.2331 226.808 69.088 227.335 68.8137 227.779C68.7651 227.858 68.6619 227.882 68.5832 227.834C68.5045 227.785 68.48 227.682 68.5286 227.603C68.7705 227.212 68.8981 226.746 68.8981 226.256C68.8981 225.01 68.0586 223.996 67.0268 223.996C65.995 223.996 65.1558 225.01 65.1558 226.256C65.1558 227.503 65.9953 228.516 67.0268 228.516C67.3504 228.516 67.669 228.414 67.949 228.222C68.0254 228.171 68.1296 228.19 68.1819 228.266C68.2341 228.342 68.215 228.446 68.1387 228.498C67.8026 228.729 67.4184 228.851 67.0268 228.851Z" fill="#534668"/>
</g>
<g opacity="0.61">
<path opacity="0.61" d="M67.0268 227.748C66.273 227.748 65.6593 227.029 65.6593 226.146C65.6593 225.263 66.2727 224.544 67.0268 224.544C67.7832 224.544 68.5658 225.079 68.5658 225.975C68.5658 226.853 67.7892 227.748 67.0268 227.748ZM67.0268 224.879C66.4576 224.879 65.9943 225.447 65.9943 226.146C65.9943 226.845 66.4573 227.413 67.0268 227.413C67.6006 227.413 68.2308 226.66 68.2308 225.974C68.2308 225.288 67.6187 224.879 67.0268 224.879Z" fill="#534668"/>
</g>
<g opacity="0.61">
<path opacity="0.61" d="M67.0268 226.632C66.6777 226.632 66.394 226.337 66.394 225.975C66.394 225.612 66.6781 225.317 67.0268 225.317C67.2204 225.305 67.5966 225.379 67.7149 225.71C67.7461 225.797 67.7008 225.893 67.6134 225.924C67.526 225.956 67.4305 225.91 67.3993 225.823C67.335 225.642 67.0382 225.653 67.0342 225.652C66.8627 225.652 66.729 225.797 66.729 225.975C66.729 226.152 66.8627 226.297 67.0268 226.297C67.1193 226.297 67.1943 226.372 67.1943 226.465C67.1943 226.557 67.1193 226.632 67.0268 226.632Z" fill="#534668"/>
</g>
</svg>
