<svg width="335" height="240" viewBox="0 0 335 240" fill="none" xmlns="http://www.w3.org/2000/svg">
<path d="M304.494 239.262L334.05 160.454C335.247 157.262 335.315 153.754 334.243 150.519L291.55 21.7201C289.621 15.8998 284.329 11.851 278.206 11.5163L76.9713 0.430879C72.136 0.16422 67.4695 2.26212 64.4601 6.05521L3.23189 83.2312C0.0265376 87.2719 -0.865955 92.684 0.875492 97.541L51.6713 239.262H304.494Z" fill="#F4F4F4"/>
<path d="M148.597 47.668C148.597 47.668 131.757 65.4824 119.392 77.0222C110.677 85.1608 84.0708 109.62 84.0708 109.62C84.0708 109.62 105.085 122.735 113.477 127.617C120.007 131.415 143.879 145.79 143.879 145.79C143.879 145.79 181.565 127.726 194.813 120.656C202.125 116.754 224.978 102.268 224.978 102.268C224.978 102.268 190.819 80.6629 180.795 73.5421C172.422 67.5967 148.597 47.668 148.597 47.668Z" fill="#D9DCDE"/>
<path d="M84.0708 109.62C84.0708 109.62 110.674 85.1608 119.392 77.0222C131.754 65.4824 148.597 47.668 148.597 47.668V69.8769L141.354 70.5843L153.13 84.7118L130.894 84.2411L135.517 93.8925L98.3969 120.662L84.0708 109.62Z" fill="white"/>
<path d="M157.867 146.272L145.236 145.757L145.585 143.972L147.783 144.625L145.767 143.042L145.957 142.078L148.632 143.526L146.148 141.104L147.179 135.85L149.587 137.3L147.337 135.036L148.771 127.736L150.967 129.091L148.975 126.688L149.552 123.747H150.967L149.723 122.882V122.879L150.14 120.757L152.066 121.625L150.284 120.019L151.511 113.769L153.905 125.981L152.066 127.058L154.188 127.418L154.398 128.484L153.198 128.381L154.567 129.355L155.271 132.944L153.057 134.207L155.603 134.628L156.267 138.024L153.198 139.529L156.431 138.857L156.55 139.461L154.169 141.333L156.67 140.076L156.888 141.178L153.658 142.96L157.337 143.466L157.867 146.272Z" fill="black"/>
<path d="M185.208 133.054L172.577 132.54L172.925 130.755L175.124 131.408L173.107 129.827L173.298 128.861L175.973 130.311L173.488 127.887L174.519 122.632L176.928 124.083L174.677 121.819L176.111 114.521L178.307 115.874L176.315 113.471L176.892 110.53H178.307L177.064 109.664L177.48 107.539L179.406 108.407L177.624 106.802L178.851 100.552L181.246 112.764L179.406 113.841L181.529 114.2L181.738 115.267L180.538 115.166L181.907 116.137L182.612 119.727L180.397 120.989L182.944 121.411L183.608 124.807L180.538 126.312L183.771 125.639L183.891 126.244L181.51 128.116L184.01 126.858L184.228 127.96L180.998 129.745L184.677 130.249L185.208 133.054Z" fill="black"/>
<path d="M254.577 86.0366C254.577 86.0366 218.769 107.832 205.994 114.803C190.68 123.159 142.091 146.655 142.091 146.655L212.666 194.531L332.371 164.924L334.047 160.454C335.244 157.262 335.312 153.754 334.24 150.519L326.434 126.966C326.434 126.966 293.009 110.36 284.332 105.723C267.382 96.6649 254.577 86.0366 254.577 86.0366Z" fill="#D9DCDE"/>
<path opacity="0.2" d="M254.577 86.0366C254.577 86.0366 218.769 107.832 205.994 114.803C190.68 123.159 142.091 146.655 142.091 146.655L212.666 194.531L332.371 164.924L334.047 160.454C335.244 157.262 335.312 153.754 334.24 150.519L326.434 126.966C326.434 126.966 293.009 110.36 284.332 105.723C267.382 96.6649 254.577 86.0366 254.577 86.0366Z" fill="black"/>
<path d="M142.091 146.655C142.091 146.655 190.683 123.159 205.994 114.803C218.769 107.832 254.577 86.0366 254.577 86.0366L244.695 116.8L235.1 118.577L232.246 138.835L192.903 137.284L204.263 147.907L146.902 153.382L142.091 146.655Z" fill="white"/>
<path d="M9.49341 121.591C9.49341 121.591 20.6632 114.051 31.188 107.192C44.5808 98.46 54.9071 89.9351 54.9071 89.9351C54.9071 89.9351 74.8113 103.592 81.4369 107.905C111.069 127.197 199.42 178.235 196.868 176.73L18.8591 147.659L9.49341 121.591Z" fill="#858990"/>
<path d="M9.49341 121.591C9.49341 121.591 20.6632 114.051 31.188 107.192C44.5808 98.46 54.9071 89.9351 54.9071 89.9351L59.443 108.939L43.3673 114.748L55.6798 121.591L17.4877 143.849L9.49341 121.591Z" fill="white"/>
<path d="M16.6519 141.562C16.6519 141.562 37.5138 140.982 92.383 154.593C118.543 161.082 138.325 166.108 160.351 169.966C184.527 174.2 210.888 177.046 238.994 179.291L200.641 200.98L34.1235 190.311L16.6519 141.562Z" fill="#FAC02C"/>
<path opacity="0.2" d="M16.6519 141.562C16.6519 141.562 37.5138 140.982 92.383 154.593C118.543 161.082 137.209 165.915 159.236 169.77C183.412 174.004 210.888 177.044 238.994 179.288L200.641 200.978L34.1235 190.309L16.6519 141.562Z" fill="white"/>
<path d="M54.9042 185.244L39.2122 184.607L39.6475 182.389L42.3767 183.2L39.8734 181.235L40.1074 180.035L43.4324 181.837L40.3468 178.825L41.6257 172.3L44.6188 174.101L41.8243 171.29L43.6039 162.221L46.333 163.903L43.8596 160.918L44.5753 157.263H46.333L44.7875 156.189L45.3045 153.549L47.6963 154.627L45.4841 152.632L47.0079 144.869L49.9819 160.039L47.6963 161.378L50.3329 161.826L50.5941 163.149L49.103 163.021L50.8064 164.229L51.6798 168.689L48.9262 170.259L52.0907 170.781L52.9179 174.999L49.103 176.868L53.122 176.036L53.2689 176.784L50.3112 179.11L53.4185 177.548L53.6852 178.917L49.6744 181.135L54.243 181.761L54.9042 185.244Z" fill="black"/>
<path d="M106.244 188.933L90.5491 188.297L90.9844 186.079L93.7136 186.89L91.2103 184.925L91.447 183.725L94.7694 185.527L91.6837 182.515L92.9626 175.99L95.9557 177.791L93.1612 174.98L94.9408 165.911L97.67 167.593L95.1966 164.608L95.9122 160.953H97.67L96.1244 159.878L96.6414 157.239L99.0332 158.317L96.821 156.322L98.3448 148.559L101.322 163.729L99.0332 165.067L101.673 165.516L101.931 166.839L100.44 166.711L102.143 167.919L103.017 172.379L100.266 173.949L103.428 174.471L104.255 178.689L100.44 180.558L104.459 179.726L104.606 180.474L101.648 182.8L104.755 181.238L105.025 182.607L101.011 184.825L105.583 185.451L106.244 188.933Z" fill="black"/>
<path d="M85.3167 186.113L59.8752 185.076L60.58 181.484L65.0071 182.796L60.9473 179.612L61.3283 177.669L66.7159 180.586L61.7119 175.705L63.7881 165.128L68.6396 168.045L64.1091 163.49L66.9934 148.788L71.4178 151.512L67.407 146.677L68.5689 140.751H71.4178L68.9117 139.009V139.006L69.7525 134.729L73.6272 136.476L70.0437 133.243L72.5116 120.659L77.336 145.248L73.6272 147.42L77.9047 148.146L78.3237 150.293L75.9102 150.086L78.6693 152.043L80.0869 159.275L75.6245 161.817L80.7508 162.666L82.0923 169.504L75.9102 172.535L82.4215 171.182L82.661 172.396L77.8693 176.17L82.9032 173.634L83.3385 175.854L76.8353 179.446L84.2419 180.464L85.3167 186.113Z" fill="black"/>
<path d="M31.8003 183.883C31.8003 183.883 37.2831 178.542 46.1645 178.55C64.4334 178.572 114.157 193.42 140.418 192.588C175.067 191.491 221.207 191.369 272.473 165.552C305.373 148.986 334.757 157.876 334.757 157.876C334.757 157.876 334.504 159.043 334.39 159.424C333.968 160.825 332.371 164.923 332.371 164.923L304.494 239.262H51.6718L31.8003 183.883Z" fill="#FAC02C"/>
<path opacity="0.7" d="M31.8003 183.883C31.8003 183.883 37.2831 178.542 46.1645 178.55C64.4334 178.572 114.157 193.42 140.418 192.587C175.067 191.491 221.207 191.368 272.473 165.552C303.683 149.838 331.938 157.089 334.757 157.876C334.757 157.876 334.531 158.939 334.428 159.285C334.001 160.724 332.368 164.923 332.368 164.923L304.491 239.261H51.6718L31.8003 183.883Z" fill="white"/>
<path d="M123.438 228.166C123.438 228.166 108.244 186.265 113.936 184.118C119.904 181.868 137.367 228.166 137.367 228.166H123.438Z" fill="#FAC02C"/>
<path opacity="0.5" d="M123.438 228.166C123.438 228.166 108.244 186.265 113.936 184.118C119.904 181.868 137.367 228.166 137.367 228.166H123.438Z" fill="white"/>
<path d="M137.715 228.167C137.715 228.167 147.837 178.947 142.142 176.8C136.175 174.55 123.786 228.167 123.786 228.167H137.715Z" fill="#21252B"/>
<path d="M205.21 239.264L185.219 202.435C183.932 200.065 181.39 198.65 178.699 198.806L149.851 200.473C147.263 200.623 144.975 202.196 143.908 204.558C142.893 206.803 140.768 208.345 138.322 208.612L135.171 208.958C132.553 209.243 130.322 210.982 129.405 213.45L119.795 239.262L205.21 239.264Z" fill="#AFB3B8"/>
<path d="M175.85 239.593L177.322 231.5C177.962 227.985 181.05 225.443 184.623 225.492L219.683 225.694C222.11 225.726 224.878 227.242 226.214 229.269L233.005 239.59H175.85V239.593Z" fill="#3F4249"/>
<path d="M96.1789 57.3837C105.281 57.3837 112.66 50.0049 112.66 40.9025C112.66 31.8002 105.281 24.4214 96.1789 24.4214C87.0766 24.4214 79.6978 31.8002 79.6978 40.9025C79.6978 50.0049 87.0766 57.3837 96.1789 57.3837Z" fill="#FAC02C"/>
<path opacity="0.5" d="M96.1789 57.3837C105.281 57.3837 112.66 50.0049 112.66 40.9025C112.66 31.8002 105.281 24.4214 96.1789 24.4214C87.0766 24.4214 79.6978 31.8002 79.6978 40.9025C79.6978 50.0049 87.0766 57.3837 96.1789 57.3837Z" fill="white"/>
<path d="M209.632 239.554C211.096 238.155 212.622 236.809 214.211 235.521C219.814 230.977 226.162 227.16 233.171 224.27C258.517 213.827 286.258 218.102 306.902 233.141L304.494 239.565L209.632 239.554Z" fill="#AFB3B8"/>
<path d="M146.986 239.258C131.552 207.196 93.5807 192.369 60.2592 206.099C54.0118 208.673 48.3575 212.075 43.3672 216.124L51.669 239.263L146.986 239.258Z" fill="#3F4249"/>
<path d="M39.9414 201.22C43.8869 199.669 48.0908 198.624 52.4662 198.172C53.3913 198.077 54.2321 198.716 54.3927 199.631L58.8279 224.816L63.1026 193.136C63.2278 192.216 64.0414 191.544 64.9665 191.601C69.3582 191.873 73.5976 192.711 77.6083 194.047C78.5008 194.344 78.9988 195.291 78.7512 196.197L77.124 202.14L72.501 218.939L86.0761 207.429L91.3195 202.942C91.9753 202.382 92.9413 202.374 93.6052 202.923C98.2391 206.754 102.168 211.407 105.169 216.656C105.613 217.434 105.406 218.422 104.691 218.958L99.4635 222.871L80.2967 235.508L102.16 228.721L107.7 226.952C108.655 226.648 109.681 227.192 109.945 228.158C110.774 231.187 111.327 234.327 111.569 237.554C111.645 238.58 110.824 239.448 109.795 239.445L51.6825 239.298L38.9292 203.465C38.6081 202.564 39.0543 201.568 39.9414 201.22Z" fill="#FAC02C"/>
<path opacity="0.3" d="M39.9414 201.22C43.8869 199.669 48.0908 198.624 52.4662 198.172C53.3913 198.077 54.2321 198.716 54.3927 199.631L58.8279 224.816L63.1026 193.136C63.2278 192.216 64.0414 191.544 64.9665 191.601C69.3582 191.873 73.5976 192.711 77.6083 194.047C78.5008 194.344 78.9988 195.291 78.7512 196.197L77.124 202.14L72.501 218.939L86.0761 207.429L91.3195 202.942C91.9753 202.382 92.9413 202.374 93.6052 202.923C98.2391 206.754 102.168 211.407 105.169 216.656C105.613 217.434 105.406 218.422 104.691 218.958L99.4635 222.871L80.2967 235.508L102.16 228.721L107.714 226.961C108.669 226.656 109.695 227.2 109.958 228.166C110.788 231.195 111.324 234.324 111.569 237.554C111.645 238.58 110.824 239.448 109.795 239.445L51.6825 239.298L38.9292 203.465C38.6081 202.564 39.0543 201.568 39.9414 201.22Z" fill="white"/>
<path d="M288.35 222.523L272.822 200.17C271.505 198.276 271.94 195.675 273.801 194.311C275.842 192.815 278.729 193.422 279.997 195.612L292.138 216.583L288.35 222.523Z" fill="white"/>
<path d="M304.769 204.481V181.097C304.769 179.524 306.045 178.248 307.618 178.248C309.267 178.248 310.573 179.644 310.461 181.29L308.908 204.128L304.769 204.481Z" fill="white"/>
<path d="M305.751 220.038L309.403 183.184C309.667 180.518 312.048 178.575 314.711 178.847C317.498 179.133 319.462 181.715 318.992 184.474L313.966 214.008L308.883 227.561L305.751 220.038Z" fill="#FAC02C"/>
<path opacity="0.5" d="M305.751 220.038L309.403 183.184C309.667 180.518 312.048 178.575 314.711 178.847C317.498 179.133 319.462 181.715 318.992 184.474L313.966 214.008L308.883 227.561L305.751 220.038Z" fill="white"/>
<path d="M299.395 231.165L293.485 176.268C293.126 172.93 295.585 169.95 298.932 169.667C302.252 169.39 305.158 171.874 305.397 175.196L309.882 224.895L299.395 231.165Z" fill="#FAC02C"/>
<path opacity="0.3" d="M299.395 231.165L293.485 176.268C293.126 172.93 295.585 169.95 298.932 169.667C302.252 169.39 305.158 171.874 305.397 175.196L309.882 224.895L299.395 231.165Z" fill="white"/>
<path d="M302.66 211.847C302.519 211.847 302.399 211.739 302.386 211.594L298.658 169.696C298.658 169.696 298.865 169.672 298.933 169.666C299.001 169.661 299.207 169.65 299.207 169.65L302.935 211.545C302.949 211.698 302.837 211.831 302.685 211.845C302.677 211.847 302.668 211.847 302.66 211.847Z" fill="black"/>
<path d="M309.882 224.897L293.327 188.441C292.027 185.578 288.944 183.968 285.85 184.536C281.545 185.328 279.08 189.897 280.778 193.932L290.34 216.636L276.939 205.529C274.043 203.129 269.69 203.853 267.728 207.061C266.016 209.861 266.789 213.51 269.494 215.371L304.423 239.43L309.882 224.897Z" fill="#FAC02C"/>
<path opacity="0.15" d="M309.882 224.897L293.327 188.441C292.027 185.578 288.944 183.968 285.85 184.536C281.545 185.328 279.08 189.897 280.778 193.932L290.34 216.636L276.939 205.529C274.043 203.129 269.69 203.853 267.728 207.061C266.016 209.861 266.789 213.51 269.494 215.371L304.423 239.43L309.882 224.897Z" fill="white"/>
<path d="M294.723 225.958C294.666 225.958 294.612 225.942 294.563 225.906L267.916 206.775C267.916 206.775 268.027 206.617 268.065 206.565C268.109 206.505 268.248 206.334 268.248 206.334L294.884 225.457C295.009 225.547 295.036 225.718 294.946 225.844C294.895 225.92 294.81 225.958 294.723 225.958Z" fill="black"/>
<path d="M300.097 222.031C299.988 222.031 299.887 221.968 299.841 221.862L284.38 184.984C284.38 184.984 284.557 184.911 284.617 184.889C284.685 184.862 284.897 184.788 284.897 184.788L300.35 221.65C300.41 221.791 300.342 221.952 300.203 222.012C300.168 222.022 300.132 222.031 300.097 222.031Z" fill="black"/>
<path d="M311.022 211.846C311.011 211.846 311 211.846 310.992 211.843C310.84 211.827 310.731 211.688 310.747 211.538L314.437 178.824C314.437 178.824 314.641 178.837 314.712 178.843C314.777 178.848 314.987 178.878 314.987 178.878L311.297 211.598C311.281 211.742 311.161 211.846 311.022 211.846Z" fill="black"/>
<path d="M207.352 143.885C203.077 143.534 204.231 137.684 201.605 134.286L189.766 135.124L167.772 140.838C163.377 142.109 161.163 144.163 161.671 147.515L166.02 186.657C166.06 186.915 166.286 187.106 166.547 187.106H173.532C173.532 187.106 174.909 174.94 175.227 171.267C175.818 164.459 175.018 159.33 173.445 153.752L173.219 152.952L205.344 149.023C210.829 148.07 210.829 144.182 210.829 144.182L207.352 143.885Z" fill="#21252B"/>
<path d="M197.785 135.495L205.05 211.55C205.129 212.138 205.635 212.576 206.228 212.57L212.78 212.502L216.037 132.279L202.315 135.291L197.785 135.495Z" fill="#21252B"/>
<path d="M205.137 217.119L199.561 221.394L194.011 222.618C193.284 222.768 192.786 223.418 192.786 224.145C192.786 224.993 193.485 225.696 194.337 225.696H213.615C214.165 225.696 214.565 225.219 214.516 224.694L213.89 219.268C213.841 218.917 213.49 218.719 213.164 218.844L212.089 219.32C211.338 219.644 210.465 219.571 209.79 219.119L206.715 217.094C206.263 216.719 205.613 216.746 205.137 217.119Z" fill="#FAC02C"/>
<path d="M205.986 217.794C206.486 217.269 206.685 216.545 206.56 215.843L206.111 213.419H212.737L213.21 220.945L203.11 220.796L205.986 217.794Z" fill="#FAC02C"/>
<path opacity="0.4" d="M205.986 217.794C206.486 217.269 206.685 216.545 206.56 215.843L206.111 213.419H212.737L213.21 220.945L203.11 220.796L205.986 217.794Z" fill="white"/>
<path d="M205.137 217.119L199.561 221.394L194.011 222.618C193.284 222.768 192.786 223.418 192.786 224.145C192.786 224.993 193.485 225.696 194.337 225.696H213.615C214.165 225.696 214.565 225.219 214.516 224.694L213.89 219.268C213.841 218.917 213.49 218.719 213.164 218.844L212.089 219.32C211.338 219.644 210.465 219.571 209.79 219.119L206.715 217.094C206.263 216.719 205.613 216.746 205.137 217.119Z" fill="#FAC02C"/>
<path d="M204.66 219.021C204.709 219.021 204.737 218.996 204.786 218.972C204.862 218.896 204.886 218.798 204.81 218.722L204.111 217.873C204.035 217.796 203.937 217.772 203.86 217.848C203.784 217.924 203.76 218.022 203.836 218.098L204.535 218.947C204.562 218.996 204.611 219.021 204.66 219.021Z" fill="white"/>
<path d="M203.986 219.497C204.035 219.497 204.062 219.472 204.111 219.448C204.187 219.372 204.212 219.274 204.135 219.197L203.485 218.397C203.409 218.321 203.311 218.297 203.235 218.373C203.158 218.449 203.134 218.547 203.21 218.623L203.86 219.423C203.86 219.47 203.937 219.497 203.986 219.497Z" fill="white"/>
<path d="M203.161 219.994C203.21 219.994 203.237 219.969 203.286 219.945C203.362 219.869 203.387 219.771 203.311 219.694L202.709 218.968C202.633 218.892 202.535 218.867 202.459 218.943C202.383 219.02 202.358 219.117 202.435 219.194L203.036 219.92C203.06 219.969 203.112 219.994 203.161 219.994Z" fill="white"/>
<path d="M214.064 220.947L201.912 224.898H204.462L214.189 221.872L214.064 220.947Z" fill="white"/>
<path opacity="0.5" d="M214.513 224.898C214.437 225.323 214.089 225.674 213.612 225.674H194.334C193.76 225.674 193.259 225.375 192.984 224.898H214.513Z" fill="black"/>
<g opacity="0.15">
<path opacity="0.15" d="M163.851 148.66C163.345 145.31 165.557 143.253 169.951 141.982L191.945 136.266L202.367 135.528C202.152 135.09 201.904 134.671 201.605 134.282L189.766 135.12L167.772 140.84C163.377 142.11 161.163 144.165 161.671 147.517L166.02 186.658C166.06 186.917 166.286 187.108 166.547 187.108H168.12L163.851 148.66Z" fill="black"/>
</g>
<path opacity="0.15" d="M174.373 157.427L170.101 154.026C169.766 153.811 169.883 153.258 170.305 153.212L173.222 152.954L174.373 157.427Z" fill="black"/>
<path d="M165.459 191.26L160.112 195.82L154.632 197.333C153.916 197.521 153.451 198.195 153.486 198.919C153.53 199.768 154.267 200.432 155.116 200.386L174.37 199.384C174.92 199.355 175.295 198.859 175.216 198.34L174.31 192.952C174.242 192.604 173.883 192.424 173.565 192.566L172.514 193.096C171.782 193.461 170.903 193.431 170.207 193.017L167.029 191.153C166.563 190.8 165.913 190.86 165.459 191.26Z" fill="#FAC02C"/>
<path d="M166.781 191.483C167.282 190.958 167.481 190.234 167.356 189.532L166.907 187.107H173.532V195.11L163.905 194.484L166.781 191.483Z" fill="#FAC02C"/>
<path opacity="0.4" d="M166.781 191.483C167.282 190.958 167.481 190.234 167.356 189.532L166.907 187.107H173.532V195.11L163.905 194.484L166.781 191.483Z" fill="white"/>
<path d="M165.459 191.26L160.112 195.82L154.632 197.333C153.916 197.521 153.451 198.195 153.486 198.919C153.53 199.768 154.267 200.432 155.116 200.386L174.37 199.384C174.92 199.355 175.295 198.859 175.216 198.34L174.31 192.952C174.242 192.604 173.883 192.424 173.565 192.566L172.514 193.096C171.782 193.461 170.903 193.431 170.207 193.017L167.029 191.153C166.563 190.8 165.913 190.86 165.459 191.26Z" fill="#FAC02C"/>
<path d="M165.084 193.183C165.133 193.18 165.157 193.153 165.206 193.126C165.277 193.047 165.296 192.946 165.217 192.876L164.474 192.062C164.395 191.991 164.294 191.972 164.224 192.051C164.153 192.13 164.134 192.231 164.213 192.302L164.956 193.115C164.983 193.164 165.035 193.186 165.084 193.183Z" fill="white"/>
<path d="M164.433 193.692C164.482 193.69 164.507 193.662 164.556 193.635C164.627 193.556 164.645 193.456 164.566 193.385L163.876 192.62C163.797 192.549 163.696 192.53 163.625 192.609C163.555 192.688 163.535 192.789 163.614 192.86L164.306 193.624C164.308 193.673 164.384 193.695 164.433 193.692Z" fill="white"/>
<path d="M163.636 194.235C163.685 194.232 163.709 194.205 163.758 194.178C163.829 194.099 163.848 193.998 163.769 193.927L163.133 193.234C163.054 193.163 162.953 193.144 162.882 193.223C162.811 193.302 162.792 193.402 162.871 193.473L163.508 194.167C163.535 194.216 163.587 194.238 163.636 194.235Z" fill="white"/>
<path d="M174.574 194.616L162.642 199.196L165.189 199.062L174.745 195.533L174.574 194.616Z" fill="white"/>
<path opacity="0.5" d="M175.228 198.54C175.176 198.967 174.844 199.337 174.368 199.362L155.114 200.363C154.54 200.393 154.025 200.118 153.726 199.658L175.228 198.54Z" fill="black"/>
<path d="M195.537 133.924L189.766 135.121L189.758 112.202C189.758 110.137 189.989 108.077 190.443 106.06L194.155 94.2186L213.417 93.6309L195.981 113.154L195.537 133.924Z" fill="#FAC02C"/>
<path d="M169.543 120.41L186.582 122.867C189.172 123.24 191.695 121.838 192.742 119.441L202.93 94.0078L194.462 94.2255C192.217 94.2826 190.288 95.8336 189.747 98.0104L185.573 114.807L169.35 115.248L169.543 120.41Z" fill="#FAC02C"/>
<path d="M232.246 96.3048C232.246 93.5702 230.028 91.3525 227.293 91.3525H223.138C220.404 91.3525 218.187 93.5702 218.187 96.3048V102.269H231.092C231.729 102.269 232.243 101.752 232.243 101.118V96.3048H232.246Z" fill="#21252B"/>
<path d="M223.609 134.859H204.837C202.484 134.859 200.577 132.951 200.577 130.598V95.6136C200.577 93.26 202.484 91.3525 204.837 91.3525H223.609V134.859Z" fill="#21252B"/>
<path d="M226.314 134.859H223.639C221.438 134.859 219.653 133.074 219.653 130.872V95.3388C219.653 93.1375 221.438 91.3525 223.639 91.3525H226.314C228.515 91.3525 230.3 93.1375 230.3 95.3388V130.872C230.3 133.074 228.515 134.859 226.314 134.859Z" fill="#3F4249"/>
<path d="M215.537 87.2334H213.986C211.711 87.2334 209.866 89.0782 209.866 91.353H211.572C211.572 89.8701 212.772 88.6701 214.255 88.6701H215.267C216.75 88.6701 217.95 89.8701 217.95 91.353H219.656C219.656 89.0782 217.811 87.2334 215.537 87.2334Z" fill="#3F4249"/>
<path d="M225.715 104.924L225.092 104.826C225.016 104.815 224.937 104.815 224.861 104.826L224.238 104.924C223.876 104.981 223.609 105.291 223.609 105.659V107.757H226.344V105.659C226.344 105.291 226.077 104.981 225.715 104.924Z" fill="#FAC02C"/>
<path d="M225.451 104.916H224.505C224.374 104.916 224.268 104.81 224.268 104.68C224.268 104.549 224.374 104.443 224.505 104.443H225.451C225.582 104.443 225.688 104.549 225.688 104.68C225.688 104.81 225.582 104.916 225.451 104.916Z" fill="#FAC02C"/>
<path opacity="0.3" d="M225.451 104.916H224.505C224.374 104.916 224.268 104.81 224.268 104.68C224.268 104.549 224.374 104.443 224.505 104.443H225.451C225.582 104.443 225.688 104.549 225.688 104.68C225.688 104.81 225.582 104.916 225.451 104.916Z" fill="black"/>
<path d="M225.683 107.381H224.271C222.472 107.381 221.014 108.839 221.014 110.638V126.852C221.014 127.432 221.485 127.903 222.064 127.903H227.892C228.472 127.903 228.943 127.432 228.943 126.852V110.638C228.94 108.839 227.481 107.381 225.683 107.381Z" fill="#FAC02C"/>
<path opacity="0.3" d="M225.683 107.381H224.271C222.472 107.381 221.014 108.839 221.014 110.638V126.852C221.014 127.432 221.485 127.903 222.064 127.903H227.892C228.472 127.903 228.943 127.432 228.943 126.852V110.638C228.94 108.839 227.481 107.381 225.683 107.381Z" fill="white"/>
<path d="M221.014 117.643V128.693C221.014 129.427 221.61 130.02 222.341 130.02H227.612C228.347 130.02 228.94 129.425 228.94 128.693V117.643H221.014Z" fill="#21252B"/>
<path d="M229.149 119.517H220.807C220.29 119.517 219.871 119.098 219.871 118.581C219.871 118.064 220.29 117.645 220.807 117.645H229.149C229.666 117.645 230.085 118.064 230.085 118.581C230.085 119.098 229.666 119.517 229.149 119.517Z" fill="#21252B"/>
<path d="M201.031 89.9507L196.239 91.6295C195.235 91.9806 194.718 93.088 195.088 94.0839L196.81 98.7123L191.205 101.071L191.918 114.807L198.857 106.522L201.265 98.2307L201.031 89.9507Z" fill="#21252B"/>
<path d="M202.35 73.9727L199.14 71.053C198.963 70.8925 198.995 70.6041 199.205 70.4843C199.311 70.4245 199.444 70.4245 199.551 70.4843L203.942 72.9686L202.35 73.9727Z" fill="#FAC02C"/>
<path d="M202.133 74.2681L201.744 74.6844C200.772 75.6776 199.627 77.7374 199.314 79.1006L199.24 79.4217C199.213 79.4652 199.2 79.4897 199.172 79.5332L197.006 80.8366C196.759 80.9917 196.672 81.3345 196.862 81.5713L197.442 82.3223L196.389 84.8528C195.817 86.2432 196.547 87.8459 197.981 88.2949L199.893 88.9098L199.387 98.417L210.233 95.5926L208.816 89.1357L212.62 82.3957L202.133 74.2681Z" fill="#956363"/>
<path d="M205.202 72.1769L205.003 72.019C205.749 72.5959 206.405 73.2707 207.335 73.3496L208.568 73.2789C210.44 73.2598 212.571 75.0176 212.603 76.5631C212.688 76.8271 212.663 77.5155 213.235 77.6788C214.772 78.1577 215.667 79.7413 215.409 80.8651L215.39 80.944C215.205 81.1725 213.942 83.9724 213.942 83.9724C212.543 86.0268 210.592 87.5669 208.813 89.1342C208.813 89.1342 207.436 88.141 207.537 86.5275L208.179 84.8758L206.456 83.5507L206.13 84.084C205.994 84.3071 205.708 84.3752 205.485 84.2391C205.284 84.1167 205.202 83.8527 205.303 83.6405L205.991 82.1086L205.24 81.5888C204.516 81.0256 204.163 80.3535 204.467 79.5018L204.685 78.8433C204.808 78.4923 204.712 78.0978 204.443 77.842C204.443 77.842 201.866 76.8271 201.997 74.6584C202.01 74.4108 202.095 74.234 202.348 73.9782L205.202 72.1769Z" fill="#21252B"/>
<path opacity="0.15" d="M199.891 88.9062L201.482 89.2981C201.804 89.3715 201.836 89.8178 201.523 89.9321L199.817 90.3021L199.891 88.9062Z" fill="black"/>
<path opacity="0.15" d="M207.501 86.5303C207.501 86.5303 206.816 86.9058 206.413 86.9656L207.967 88.2173C207.953 88.2391 207.39 87.5615 207.501 86.5303Z" fill="black"/>
<path d="M200.745 80.229C200.91 79.9582 200.845 79.6176 200.601 79.4682C200.355 79.3188 200.023 79.4173 199.858 79.688C199.693 79.9588 199.758 80.2994 200.003 80.4488C200.248 80.5982 200.58 80.4997 200.745 80.229Z" fill="#21252B"/>
<path d="M200.171 79.6895C200.215 79.6895 200.25 79.6541 200.25 79.6104C200.25 79.5667 200.215 79.5312 200.171 79.5312C200.128 79.5312 200.092 79.5667 200.092 79.6104C200.092 79.6541 200.128 79.6895 200.171 79.6895Z" fill="white"/>
<g opacity="0.3">
<path opacity="0.3" d="M197.09 83.9975C197.09 83.9975 197.112 84.0111 197.09 83.9975C197.134 84.0247 198.013 84.4383 198.867 84.1363C198.951 84.0955 199.006 84.0084 198.981 83.8995C198.941 83.8152 198.853 83.7608 198.745 83.7853C198.045 84.0301 197.259 83.671 197.259 83.671C197.169 83.6165 197.049 83.6655 197.017 83.7662C196.998 83.8506 197.022 83.9567 197.09 83.9975Z" fill="#21252B"/>
</g>
<path d="M205.033 72.2803L215.207 81.1698C215.207 81.1698 214.91 82.3861 213.65 83.7167L202.35 73.9727C202.35 73.97 203.931 72.9741 205.033 72.2803Z" fill="#FAC02C"/>
<path d="M204.577 86.5783C205.888 87.3783 207.583 86.9483 208.37 85.6586L208.721 85.0817C209.113 84.4369 208.906 83.577 208.261 83.1852C207.616 82.7934 206.756 83.0002 206.364 83.6451L204.577 86.5783Z" fill="#956363"/>
<g opacity="0.3">
<path opacity="0.3" d="M206.475 84.8071C206.565 84.8615 206.706 84.8261 206.761 84.7363L207.06 84.2465C207.21 84.0016 207.531 83.9227 207.776 84.0724C207.909 84.154 207.993 84.2656 208.015 84.4316C208.042 84.5377 208.138 84.6302 208.246 84.603C208.355 84.5758 208.445 84.4805 208.418 84.3717C208.372 84.0996 208.225 83.8874 207.98 83.7377C207.558 83.4792 206.984 83.618 206.728 84.0425L206.429 84.5322C206.339 84.6329 206.366 84.739 206.475 84.8071Z" fill="#21252B"/>
</g>
<path d="M202.35 73.9712L206.217 71.536C206.962 71.0679 207.882 70.9727 208.706 71.2829L212.652 72.7686C213.28 73.0053 213.806 73.4597 214.127 74.0502L215.923 77.3344C216.366 78.1453 216.382 79.1221 215.969 79.9466L213.944 83.9682L202.35 73.9712Z" fill="#FAC02C"/>
<path d="M200.633 98.7125L200.242 93.8201C200.171 92.9222 200.742 92.095 201.607 91.8447L208.943 89.7305L209.8 93.6351L200.633 98.7125Z" fill="#FAC02C"/>
<path opacity="0.15" d="M200.633 98.7125L200.242 93.8201C200.171 92.9222 200.742 92.095 201.607 91.8447L208.943 89.7305L209.8 93.6351L200.633 98.7125Z" fill="#F4F4F4"/>
<path d="M200.634 98.7149L191.918 114.81L189.766 135.122L215.937 135.429L215.811 94.2252L209.801 93.6348L200.634 98.7149Z" fill="#FAC02C"/>
<path d="M189.766 135.122C189.766 135.122 196.07 134.284 202.985 139.946C208.078 144.115 211.368 146.67 215.564 145.992L216.203 127.906L194.726 129.125L189.766 135.122Z" fill="#FAC02C"/>
<path opacity="0.3" d="M189.766 135.121C189.766 135.121 196.07 134.283 202.985 139.945C208.078 144.114 211.368 146.669 215.564 145.991L215.675 143.844C215.675 143.844 211.806 144.911 204.546 138.772C196.343 131.834 189.766 133.249 189.766 133.249V135.121Z" fill="black"/>
<path d="M195.112 148.081L194.373 148.428L230.474 225.385L231.214 225.038L195.112 148.081Z" fill="black"/>
<g opacity="0.5">
<path opacity="0.5" d="M195.112 148.083L194.373 148.43L230.475 225.387L231.215 225.04L195.112 148.083Z" fill="white"/>
</g>
<path d="M195.047 148.223L194.468 148.517C194.138 148.683 193.736 148.552 193.567 148.223L190.141 141.45C189.975 141.121 190.106 140.718 190.435 140.549L191.015 140.256C191.344 140.09 191.747 140.22 191.915 140.549L195.341 147.322C195.51 147.654 195.377 148.057 195.047 148.223Z" fill="#FAC02C"/>
<path d="M191.415 139.194L196.285 136.609L198.699 140.9C198.699 140.9 198.302 141.439 198.155 141.618L197.542 142.478C196.685 143.569 195.913 144.084 194.892 144.892L193.559 145.945L192.473 147.153C192.185 147.474 191.671 147.468 191.393 147.115C191.208 146.878 191.194 146.541 191.366 146.274L192.032 145.303L191.627 145.877C191.347 146.288 190.756 146.309 190.446 145.915C190.245 145.659 190.231 145.319 190.424 145.039L190.743 144.595C190.424 145.039 189.779 145.069 189.439 144.639C189.222 144.364 189.213 143.988 189.39 143.689L189.545 143.441C189.325 143.806 188.789 143.814 188.525 143.482C188.37 143.286 188.354 142.982 188.468 142.764L189.687 140.718C190.117 140.092 190.713 139.558 191.415 139.194Z" fill="#956363"/>
<path opacity="0.15" d="M188.497 142.804L189.629 140.889L189.866 141.593C189.888 141.863 190.037 142.094 190.258 142.208C190.424 142.298 190.533 142.437 190.603 142.606L190.783 143.035C190.837 143.185 190.965 143.305 191.112 143.413L191.412 143.591C191.545 143.678 191.656 143.778 191.711 143.928L191.828 144.157C191.901 144.29 192.01 144.426 192.146 144.478L192.497 144.679C192.666 144.769 192.788 144.926 192.859 145.095L192.924 145.299C193.006 145.522 193.164 145.683 193.387 145.762L193.727 145.909L193.591 146.018L192.505 147.226C192.217 147.547 191.703 147.541 191.425 147.188C191.24 146.951 191.226 146.614 191.398 146.347L192.065 145.376L191.659 145.95C191.379 146.361 190.788 146.382 190.478 145.988C190.277 145.732 190.263 145.392 190.456 145.111L190.775 144.668C190.456 145.111 189.812 145.142 189.471 144.712C189.254 144.437 189.246 144.061 189.422 143.762L189.578 143.514C189.357 143.879 188.821 143.887 188.557 143.555C188.386 143.308 188.348 143.016 188.497 142.804Z" fill="black"/>
<g opacity="0.15">
<path opacity="0.15" d="M191.426 145.907L191.66 146.041L192.16 145.262C192.204 145.197 192.177 145.121 192.111 145.077C192.046 145.034 191.97 145.061 191.926 145.126L191.426 145.907Z" fill="black"/>
</g>
<g opacity="0.15">
<g opacity="0.15">
<path opacity="0.15" d="M190.609 144.67L191.047 143.973L191.053 143.938C191.036 143.919 191.017 143.932 191.017 143.932L190.579 144.629L190.609 144.67Z" fill="white"/>
<path opacity="0.15" d="M191.131 143.876C191.161 143.914 191.175 143.971 191.131 144.037L190.631 144.815L190.397 144.682L190.897 143.903C190.941 143.838 191.031 143.83 191.082 143.854C191.115 143.857 191.131 143.876 191.131 143.876Z" fill="black"/>
</g>
</g>
<g opacity="0.15">
<g opacity="0.15">
<path opacity="0.15" d="M189.57 143.682L190.008 142.986L190.013 142.95L189.978 142.945L189.521 143.658L189.57 143.682Z" fill="white"/>
<path opacity="0.15" d="M190.108 142.874C190.138 142.912 190.152 142.969 190.108 143.034L189.608 143.813L189.374 143.679L189.874 142.901C189.918 142.836 190.008 142.828 190.059 142.852C190.095 142.852 190.095 142.852 190.108 142.874Z" fill="black"/>
</g>
</g>
<path d="M215.812 94.2242C212.536 94.1481 209.861 96.8255 209.934 100.102L210.043 106.417L209.932 126.702L195.156 137.238L198.697 140.903L215.208 133.121C216.538 132.492 217.629 131.412 218.171 130.043C218.359 129.564 218.486 129.064 218.535 128.552L220.511 108.627L221.36 100.7C221.814 97.3235 219.213 94.2977 215.812 94.2242Z" fill="#FAC02C"/>
<path opacity="0.15" d="M216.9 94.3535C218.851 95.4664 220.07 97.6867 219.752 100.081L218.902 108.008L216.927 127.933C216.875 128.445 216.75 128.946 216.563 129.425C216.021 130.793 214.93 131.874 213.599 132.502L197.788 139.955L198.702 140.902L215.213 133.12C216.544 132.491 217.635 131.411 218.176 130.042C218.364 129.563 218.492 129.063 218.541 128.551L220.516 108.625L221.365 100.699C221.765 97.6949 219.746 94.9685 216.9 94.3535Z" fill="black"/>
<path opacity="0.15" d="M199.931 133.832L208.288 126.131L210.1 102.616C210.054 99.2642 209.937 126.7 209.937 126.7L199.931 133.832Z" fill="black"/>
<path d="M192.348 113.675V135.179L191.918 135.144V114.807L192.348 113.675Z" fill="#21252B"/>
<path d="M212.315 105.45C212.785 101.684 214.13 98.963 217.204 97.5072L220.012 96.2011C220.012 96.2011 219.207 95.0502 217.253 94.7046L214.704 95.7359C211.199 97.314 209.123 100.979 209.572 104.794L209.934 126.698C209.934 126.698 211.637 110.87 212.315 105.45Z" fill="#21252B"/>
<path d="M211.689 104.918C212.16 101.153 213.648 98.418 216.723 96.9622L219.417 95.6071C219.417 95.6071 218.445 94.6249 216.492 94.2793L214.279 95.3106C210.775 96.8887 208.699 100.554 209.148 104.369L209.934 126.697C209.934 126.7 211.011 110.339 211.689 104.918Z" fill="#3F4249"/>
<path opacity="0.15" d="M199.164 149.81C207.605 148.373 208.971 145.225 208.971 145.225C208.971 145.225 207.431 148.005 201.858 150.422L207.216 212.548L206.062 212.483C205.521 212.453 205.083 212.031 205.031 211.489L199.164 149.81Z" fill="black"/>
<path d="M212.209 213.697H206.299C205.983 213.697 205.727 213.441 205.727 213.125V212.429H212.78V213.125C212.777 213.441 212.522 213.697 212.209 213.697Z" fill="#3F4249"/>
<path d="M172.961 188.375H167.051C166.735 188.375 166.479 188.12 166.479 187.804V187.107H173.532V187.804C173.532 188.12 173.276 188.375 172.961 188.375Z" fill="#3F4249"/>
<path d="M152.287 101.689L162.21 99.646L169.339 114.056L169.35 132.695L162.708 131.555V115.654L152.287 101.689Z" fill="white"/>
<path opacity="0.2" d="M154.131 104.16L161.51 102.727L167.554 114.941L167.965 131.02L162.708 130.348V115.654L154.131 104.16Z" fill="black"/>
<path d="M167.916 128.519L165.608 128.334L165.677 124.304H167.791V124.029H165.682L165.755 119.738L167.676 119.664L167.666 119.39L165.761 119.463L165.832 115.333L167.573 115.077L167.532 114.805L165.837 115.052V115.047V115.009L163.312 110.478L165.023 109.866L164.931 109.605L163.176 110.233L160.975 106.291L162.996 105.801L162.931 105.532L160.836 106.04L159.214 103.129L158.972 103.265L160.558 106.108L156.403 107.118L156.469 107.385L160.697 106.359L162.912 110.329L159.655 111.493L159.747 111.754L163.048 110.574L165.559 115.077V115.093L162.689 115.515L162.727 115.79L165.554 115.373L165.483 119.474L162.702 119.58L162.713 119.855L165.481 119.749L165.407 124.029H162.708V124.304H165.402L165.334 128.312L162.719 128.102L162.697 128.377L165.328 128.587L165.293 130.693L165.568 130.698L165.603 128.608L167.894 128.793L167.916 128.519Z" fill="white"/>
<path opacity="0.2" d="M152.287 101.69L157.116 98.5117L158.7 100.367L152.287 101.69Z" fill="black"/>
<path d="M162.738 120.775C161.533 118.609 160.395 116.508 160.697 114.049C160.97 113.526 161.168 113.33 161.691 113.066L165.818 111.045C166.088 110.917 166.401 111.026 166.534 111.276C166.667 111.529 166.594 111.855 166.335 112.005L162.907 114.111L166.009 113.099C166.354 112.982 166.719 113.249 166.708 113.621C166.7 113.836 166.572 114.002 166.398 114.089L162.771 115.659L165.533 114.468C165.867 114.326 166.224 114.571 166.218 114.925C166.224 115.104 166.12 115.262 165.987 115.346L162.817 117.3L164.975 115.983C165.217 115.825 165.557 115.964 165.62 116.244C165.655 116.397 165.612 116.557 165.511 116.655C165.511 116.655 163.22 117.921 162.787 119.548C162.632 120.141 162.738 120.775 162.738 120.775Z" fill="#956363"/>
<path opacity="0.15" d="M162.771 115.665L165.53 114.474" stroke="black" stroke-miterlimit="10" stroke-linecap="round" stroke-linejoin="round"/>
<path opacity="0.15" d="M163.189 117.073L164.991 115.971" stroke="black" stroke-miterlimit="10" stroke-linecap="round" stroke-linejoin="round"/>
<path opacity="0.15" d="M189.76 122.433L189.765 109.879L190.446 106.047C190.465 105.941 190.408 105.838 190.307 105.8C190.182 105.751 190.04 105.822 190.008 105.952L189.017 109.838L187.251 122.926C187.251 122.926 187.646 122.988 188.585 122.809C189.327 122.665 189.76 122.433 189.76 122.433Z" fill="black"/>
<path d="M215.991 54.0748C215.991 54.0748 214.056 53.6476 212.742 52.3361C211.428 51.0218 209.096 47.1798 203.186 48.8233C197.276 50.464 197.605 51.449 194.65 51.1198C191.695 50.7905 188.74 45.2914 184.144 46.5213C179.546 47.7512 174.055 54.0721 174.055 54.0721L215.991 54.0748Z" fill="white"/>
<path d="M50.9478 73.615C50.9478 73.615 52.2076 73.3374 53.062 72.483C53.9164 71.6286 55.4374 69.1253 59.2849 70.1947C63.1324 71.264 62.9202 71.9062 64.844 71.6912C66.7677 71.4763 68.6942 67.8954 71.6846 68.6981C74.6777 69.5008 78.2531 73.615 78.2531 73.615H50.9478Z" fill="white"/>
<path d="M312.769 239.594H38.9047C38.8094 239.594 38.7441 239.531 38.7441 239.434C38.7441 239.336 38.8094 239.273 38.9047 239.273H312.801C312.897 239.273 312.962 239.338 312.962 239.434C312.962 239.529 312.864 239.594 312.769 239.594Z" fill="#B2B6BB"/>
<path d="M56.2757 239.274L47.5194 209C47.4677 208.823 47.5711 208.638 47.748 208.587C47.9249 208.535 48.1099 208.638 48.1616 208.815L56.9777 239.274H56.2757Z" fill="black"/>
<path d="M61.8618 239.273L68.599 202.387C68.6317 202.205 68.8058 202.088 68.9854 202.12C69.1677 202.153 69.2874 202.327 69.2521 202.507L62.5448 239.273H61.8618Z" fill="black"/>
<path d="M64.1529 239.274L63.7175 239.277L90.3236 214.749C90.4596 214.624 90.6692 214.632 90.7943 214.768C90.9195 214.904 90.9113 215.114 90.7753 215.239L64.7025 239.277L64.1529 239.274Z" fill="black"/>
<path d="M83.8743 239.274L102.962 235.261C103.142 235.223 103.319 235.337 103.357 235.517C103.395 235.696 103.28 235.873 103.098 235.911L87.164 239.274C87.1422 239.28 83.8743 239.274 83.8743 239.274Z" fill="black"/>
<path d="M264.468 35.4016C264.468 35.4016 261.037 28.9201 255.853 30.599C250.855 32.218 250.33 36.8519 250.33 36.8519C250.33 36.8519 245.952 31.4207 240.853 33.6901C236.259 35.7363 237.144 42.0191 237.144 42.0191C237.144 42.0191 238.099 36.4329 242.534 35.4859C246.972 34.5363 250.83 39.3579 250.83 39.3579C250.83 39.3579 251.78 34.0493 256.441 32.7078C261.097 31.3636 264.468 35.4016 264.468 35.4016Z" fill="#21252B"/>
<path d="M231.645 33.1813C231.645 33.1813 229.343 28.1066 225.098 29.4535C221.572 30.5691 221.185 33.7935 221.185 33.7935C221.185 33.7935 218.037 30.0821 214.524 31.7528C211.357 33.2575 212.081 37.6275 212.081 37.6275C212.081 37.6275 212.775 33.6412 215.852 32.9038C218.93 32.1664 221.58 35.5377 221.58 35.5377C221.58 35.5377 222.622 31.8916 225.849 30.8766C229.07 29.8481 231.645 33.1813 231.645 33.1813Z" fill="#21252B"/>
<path d="M282.076 44.507C282.076 44.507 279.774 39.4323 275.529 40.7792C272.002 41.8948 271.616 45.1192 271.616 45.1192C271.616 45.1192 268.468 41.4078 264.955 43.0785C261.788 44.5832 262.512 48.9531 262.512 48.9531C262.512 48.9531 263.205 44.9668 266.283 44.2295C269.36 43.4921 272.011 46.8634 272.011 46.8634C272.011 46.8634 273.053 43.2172 276.28 42.2023C279.502 41.1765 282.076 44.507 282.076 44.507Z" fill="#21252B"/>
<path d="M199.474 96.0225L195.975 107.32L200.633 98.7135L200.432 96.1912C200.432 96.1912 200.051 96.3599 199.762 96.1912" fill="#F4F4F4"/>
<path d="M199.196 77.915C199.038 77.9804 198.902 78.1055 198.821 78.2606L198.54 78.8021C198.002 79.8442 198.41 81.134 199.452 81.6728C200.494 82.2115 201.784 81.8034 202.323 80.7612L202.603 80.2197C202.804 79.8334 202.655 79.3653 202.268 79.164L199.895 77.9341L199.876 77.9232C199.876 77.9259 199.553 77.7817 199.196 77.915ZM199.708 78.2062L199.727 78.2171L202.1 79.447C202.331 79.5667 202.423 79.8606 202.304 80.0918L202.023 80.6333C201.563 81.5204 200.459 81.8551 199.572 81.3952C198.685 80.9354 198.35 79.8306 198.81 78.9436L199.09 78.4021C199.212 78.1681 199.495 78.0946 199.708 78.2062Z" fill="#21252B"/>
</svg>
